<?xml version="1.0" encoding="UTF-8" standalone="no"?>
<!-- Created with Inkscape (http://www.inkscape.org/) -->

<svg
   width="2.5892861in"
   height="1.7125494in"
   viewBox="0 0 65.767867 43.498756"
   version="1.1"
   id="svg1"
   inkscape:version="1.4.3 (0d15f75, 2025-12-25)"
   sodipodi:docname="Main Logo 1 transparent.svg"
   inkscape:export-filename="../../bitmap.png"
   inkscape:export-xdpi="96"
   inkscape:export-ydpi="96"
   xmlns:inkscape="http://www.inkscape.org/namespaces/inkscape"
   xmlns:sodipodi="http://sodipodi.sourceforge.net/DTD/sodipodi-0.dtd"
   xmlns="http://www.w3.org/2000/svg"
   xmlns:svg="http://www.w3.org/2000/svg">
  <sodipodi:namedview
     id="namedview1"
     pagecolor="#000000"
     bordercolor="#000000"
     borderopacity="0"
     inkscape:showpageshadow="2"
     inkscape:pageopacity="0.0"
     inkscape:pagecheckerboard="true"
     inkscape:deskcolor="#d1d1d1"
     inkscape:document-units="in"
     showborder="false"
     inkscape:zoom="0.62181538"
     inkscape:cx="171.2727"
     inkscape:cy="413.30596"
     inkscape:window-width="1024"
     inkscape:window-height="847"
     inkscape:window-x="0"
     inkscape:window-y="25"
     inkscape:window-maximized="0"
     inkscape:current-layer="layer1" />
  <defs
     id="defs1" />
  <g
     inkscape:label="Layer 1"
     inkscape:groupmode="layer"
     id="layer1"
     transform="translate(-75.935421,-50.270836)">
    <path
       style="fill:#d4a418;stroke-width:0.065768"
       d="m 108.03037,93.456314 c -0.91097,-0.425811 -3.06068,-1.138159 -5.65604,-1.874243 -3.889136,-1.103021 -4.622617,-1.327155 -6.092088,-1.861566 -2.143072,-0.779397 -3.654923,-1.460366 -5.458648,-2.458687 l -0.326352,-0.180516 -0.02465,-1.095121 -0.02466,-1.095123 -1.008452,-0.612798 c -3.760182,-2.285378 -6.396308,-3.959789 -6.555167,-4.164091 -0.125324,-0.16129 -0.05865,-1.213511 0.08872,-1.399972 0.04722,-0.06045 0.180543,-0.109728 0.295153,-0.109728 0.199466,0 0.208585,0.02667 0.208585,0.604317 v 0.604317 l 2.170333,1.358138 c 1.193676,0.746988 2.927485,1.806803 3.852888,2.35524 l 1.682546,0.997153 0.0055,1.117524 0.0055,1.117549 1.293445,0.645744 c 2.844617,1.420216 5.464177,2.316709 10.648757,3.644281 2.11924,0.542671 4.17632,1.154709 5.10639,1.519351 l 0.51884,0.203454 1.76109,-0.586181 c 0.9686,-0.322275 2.57004,-0.791261 3.55877,-1.041984 5.56534,-1.411503 7.68002,-2.12156 10.84903,-3.642914 l 1.51001,-0.724916 0.0247,-1.119327 0.0246,-1.119302 1.40304,-0.846683 c 1.81722,-1.096467 3.36809,-2.05039 4.9765,-3.060827 l 1.29344,-0.812597 v -0.605968 c 0,-0.570331 0.0114,-0.605891 0.19736,-0.604621 0.35212,0.0024 0.40711,0.108204 0.43424,0.834313 l 0.0259,0.698958 -0.57001,0.378002 c -0.78427,0.51972 -4.62696,2.915461 -5.96317,3.717387 l -1.09614,0.65786 -0.0434,1.128725 -0.0434,1.1287 -1.50762,0.761187 c -2.56567,1.295603 -4.76923,2.0987 -9.10263,3.317776 -3.83966,1.080135 -6.21057,1.85326 -7.1658,2.336698 -0.22758,0.114808 -0.46426,0.206502 -0.52611,0.203708 -0.0617,-0.0031 -0.40848,-0.144526 -0.7702,-0.313131 z m 0.57465,-2.092528 c -0.16586,-0.433985 -0.54226,-0.7445 -0.9035,-0.745109 -0.10846,-1.96e-4 -0.19736,-0.03988 -0.19736,-0.08814 0,-0.04801 0.13284,-0.08763 0.2951,-0.08763 0.37074,0 0.71475,-0.265024 0.85776,-0.660324 0.13335,-0.368656 0.21183,-0.385013 0.27757,-0.05766 0.078,0.389306 0.33185,0.628193 0.80568,0.757758 0.30328,0.08306 0.36808,0.122428 0.21032,0.127762 -0.3524,0.01212 -0.80506,0.364439 -1.00663,0.783438 l -0.18263,0.379399 z m -2.10927,-0.481381 c -0.0965,-0.03632 -0.80675,-0.192278 -1.57845,-0.347218 -4.52632,-0.906587 -8.349918,-2.109422 -11.597054,-3.648261 l -1.249604,-0.592175 v -1.105027 -1.105078 l -0.854964,-0.519303 c -4.449979,-2.70289 -5.837365,-3.537019 -6.269154,-3.769185 l -0.503517,-0.27056 -7.27e-4,-1.512672 c -6.58e-4,-1.454455 0.0061,-1.512723 0.174548,-1.512723 0.164262,0 0.175972,0.06172 0.185979,0.986511 0.01515,1.419352 0.01831,1.46878 0.08702,1.46878 0.03406,0 0.390692,-0.140716 0.792119,-0.312445 0.401472,-0.171704 0.979531,-0.393065 1.284557,-0.491592 0.305074,-0.09881 0.538426,-0.195326 0.518571,-0.215392 -0.01957,-0.01982 -0.320723,0.02397 -0.668711,0.09703 -0.347937,0.07315 -0.699135,0.130048 -0.780384,0.127254 -0.29607,-0.01187 0.196266,-0.165862 1.781459,-0.556818 1.472588,-0.363297 1.949036,-0.463754 3.770702,-0.7953 0.69817,-0.127254 0.693547,-0.127762 -0.964615,-0.08255 -0.916382,0.02488 -1.883149,0.0635 -2.148393,0.08738 -0.340818,0.02997 -0.430833,0.01781 -0.306914,-0.04039 0.1508,-0.07087 0.754629,-0.173228 3.63916,-0.616128 0.347345,-0.05334 -0.131064,-0.07976 -1.709979,-0.09398 -2.199073,-0.02014 -2.269635,-0.04902 -0.613829,-0.249936 0.434048,-0.05283 1.302225,-0.16637 1.929196,-0.251714 l 1.139977,-0.155956 -0.657682,-0.02443 c -0.361696,-0.01344 -1.081887,0.0074 -1.600352,0.04623 -0.51849,0.03886 -0.942696,0.04496 -0.942696,0.01345 0,-0.06325 -0.0063,-0.06172 1.973047,-0.482473 l 1.403045,-0.298221 -1.841475,0.03962 c -2.56855,0.05563 -4.918043,0.382168 -9.275915,1.289253 -0.953986,0.198882 -1.75609,0.339496 -1.782443,0.31308 -0.07267,-0.07264 0.53262,-10.031062 0.615254,-10.123597 0.0095,-0.01061 0.705704,-0.1572 1.547152,-0.326044 3.763214,-0.754527 8.334343,-1.423436 12.315867,-1.802244 1.012799,-0.09634 2.453132,-0.235484 3.200705,-0.309151 3.40205,-0.335273 4.75551,-0.403975 8.9006,-0.451732 6.90345,-0.0795 10.88624,0.138379 19.59886,1.072866 1.95342,0.209499 4.9267,0.640275 7.58525,1.099012 1.14335,0.197307 3.57147,0.679859 3.59695,0.714885 0.009,0.01193 0.0612,0.751716 0.11633,1.643952 0.0554,0.892259 0.16002,2.569335 0.23241,3.726853 0.0724,1.157506 0.16154,2.709388 0.19787,3.448584 l 0.0665,1.344015 -0.39497,-0.05817 c -0.21717,-0.03226 -0.88821,-0.169418 -1.4911,-0.304825 -1.56975,-0.352831 -5.08211,-0.93566 -6.62065,-1.098601 -0.72347,-0.07671 -2.00589,-0.15748 -2.84994,-0.179324 l -1.53462,-0.03988 1.65588,0.348234 c 0.91072,0.191262 1.69992,0.368097 1.7538,0.392456 0.0533,0.0242 -0.65182,0.02667 -1.56818,0.0054 -1.08239,-0.02534 -1.55859,-0.01118 -1.35923,0.03988 0.40102,0.103124 3.06171,0.441376 3.53497,0.449301 0.20218,0.0034 0.44617,0.04216 0.54267,0.08611 0.11023,0.04978 -0.67066,0.07239 -2.09345,0.05944 -1.24787,-0.0113 -2.15544,0.0065 -2.01688,0.03988 0.27612,0.06629 2.31409,0.395173 3.38013,0.5461 0.77897,0.110236 1.06614,0.278968 0.335,0.19685 -0.26558,-0.03023 -1.23236,-0.07417 -2.14841,-0.09881 l -1.66555,-0.0442 0.74536,0.130048 c 1.43726,0.251206 2.59988,0.492658 4.07762,0.846302 1.97625,0.473025 2.34881,0.661747 0.75138,0.380619 -0.40663,-0.07188 -0.75852,-0.110998 -0.78189,-0.08763 -0.0233,0.02352 0.006,0.04242 0.0668,0.04242 0.0866,0 1.30546,0.438201 2.59118,0.931596 0.11226,0.04318 0.14452,0.03099 0.10185,-0.0381 -0.034,-0.05537 -0.035,-0.653948 -0.001,-1.330223 0.0554,-1.116254 0.0757,-1.22964 0.22327,-1.22964 0.15215,0 0.16205,0.101854 0.16205,1.622273 0,1.155649 -0.029,1.622273 -0.0998,1.622273 -0.0549,0 -0.38054,0.17145 -0.72344,0.380263 -3.01123,1.83675 -5.6433,3.450499 -6.16999,3.783048 l -0.63576,0.401396 v 1.08011 1.080135 l -0.9427,0.446862 c -2.79883,1.327125 -5.45015,2.253945 -8.79121,3.073309 -2.08529,0.511454 -4.93387,1.151204 -4.97463,1.117295 -0.0114,-0.0092 0.0876,-0.145288 0.21895,-0.302819 0.22834,-0.273355 0.29992,-0.297078 1.59852,-0.533095 4.39568,-0.798754 8.14128,-1.946326 11.43738,-3.504202 l 1.09706,-0.51849 0.0246,-1.123518 0.0246,-1.123519 1.2715,-0.770001 c 0.69931,-0.423494 1.70559,-1.033348 2.23612,-1.355166 1.88529,-1.143711 3.3375,-1.97457 3.70867,-2.121916 l 0.3764,-0.149352 -1.34104,-0.455523 c -2.77214,-0.942018 -5.37031,-1.335654 -11.07458,-1.678133 -5.11823,-0.307314 -8.31696,-0.38546 -13.51979,-0.33035 -8.698931,0.09195 -14.971276,0.54511 -18.462499,1.33317 -0.972281,0.219202 -2.697113,0.765734 -3.357045,1.063193 -0.336583,0.151638 -0.341277,0.159766 -0.116434,0.188468 0.269266,0.03454 1.752085,0.870357 5.090675,2.869639 l 2.342972,1.40302 0.0024,1.124128 0.0024,1.124128 0.98651,0.465074 c 2.403602,1.133094 4.69979,1.946884 7.782551,2.758061 1.00914,0.265582 3.69071,0.819353 4.51607,0.932714 0.49466,0.06858 0.78117,0.218947 0.92476,0.487171 0.11887,0.222505 0.0927,0.255321 -0.13564,0.169164 z M 95.19676,76.401552 c 0.179324,-0.148844 0.14224,-0.27084 -0.05131,-0.16764 -0.538429,0.288214 -1.058037,-0.02667 -1.058037,-0.640994 0,-0.588289 0.458622,-0.889051 0.960247,-0.629691 0.265582,0.137414 0.267513,0.136398 0.267513,-0.09347 0,-0.22987 -0.0049,-0.231394 -0.551815,-0.196596 -0.698856,0.0447 -1.070331,0.285572 -1.203706,0.78077 -0.121412,0.449885 0.02144,0.769061 0.440283,0.985012 0.329718,0.169926 0.970941,0.14986 1.196798,-0.03759 z m 28.10487,0.09957 c 0.10821,-7.23e-4 0.1524,-0.100584 0.17577,-0.395579 0.0272,-0.345237 0.009,-0.395504 -0.14478,-0.401828 -0.0968,-0.004 -0.29439,-0.02397 -0.43909,-0.0447 -0.21514,-0.03023 -0.2347,-0.02024 -0.10973,0.05537 0.21641,0.13081 0.20396,0.582219 -0.0177,0.652577 -0.45189,0.143256 -0.96649,-0.505359 -0.83055,-1.047115 0.12217,-0.486791 0.85778,-0.635 1.27554,-0.256998 0.15595,0.141224 0.16433,0.139446 0.16433,-0.03658 0,-0.256438 -0.25146,-0.367461 -0.83167,-0.367461 -0.60221,0 -0.94879,0.167132 -1.09888,0.529336 -0.31288,0.755218 0.43142,1.471574 1.40439,1.351889 0.16891,-0.02084 0.37201,-0.03835 0.45154,-0.03886 z M 97.880763,76.199089 c 0.596341,-0.390728 0.521513,-1.394816 -0.120904,-1.618666 -1.051509,-0.366547 -2.050618,0.447929 -1.644066,1.340257 0.151384,0.332257 0.56703,0.505764 1.098575,0.45852 0.24892,-0.02205 0.548691,-0.103124 0.66609,-0.179832 z m -1.086993,-0.12954 c -0.169418,-0.136906 -0.20701,-0.250444 -0.20701,-0.621563 0,-0.371247 0.0381,-0.48448 0.20701,-0.621589 0.2778,-0.225044 0.502894,-0.211328 0.761517,0.0475 0.158242,0.158242 0.215392,0.310007 0.215392,0.573989 0,0.263906 -0.05715,0.415595 -0.215392,0.573964 -0.258648,0.258648 -0.483565,0.272796 -0.761517,0.0475 z m 23.70278,-1.471676 c 0.0742,-0.08966 0.0404,-0.114554 -0.15773,-0.114554 h -0.25248 l 0.0462,0.621309 c 0.0253,0.341732 0.024,0.634975 -0.003,0.651688 -0.0272,0.01667 -0.32357,-0.279857 -0.65913,-0.65885 -0.57043,-0.644525 -0.63279,-0.689179 -0.96078,-0.688569 -0.19304,3.33e-4 -0.30142,0.02044 -0.2413,0.04496 0.0767,0.03073 0.10973,0.289966 0.10973,0.862686 0,0.576148 -0.0323,0.829665 -0.10973,0.856259 -0.0599,0.02084 0.0384,0.05563 0.21895,0.07747 0.21895,0.02642 0.29952,0.01029 0.2413,-0.04801 -0.0874,-0.08738 -0.12776,-1.192505 -0.0434,-1.192505 0.024,0 0.32292,0.293574 0.66378,0.652349 0.34082,0.3588 0.70574,0.664667 0.81087,0.679577 0.18364,0.02591 0.19203,-0.0065 0.21692,-0.800964 0.0139,-0.455473 0.0686,-0.879678 0.12039,-0.942696 z m -20.86256,1.581175 c -0.07315,-0.02972 -0.109728,-0.25146 -0.109728,-0.670458 v -0.626237 l 0.637848,0.633578 c 0.40828,0.405612 0.7081,0.633526 0.83304,0.633526 0.18821,0 0.19507,-0.03048 0.19507,-0.815543 0,-0.517347 0.0384,-0.853948 0.10541,-0.920775 0.082,-0.08204 0.0312,-0.10541 -0.2253,-0.10541 -0.30066,0 -0.31818,0.0125 -0.19304,0.137668 0.0945,0.09449 0.13767,0.302006 0.13767,0.657682 0,0.285852 -0.0202,0.519887 -0.0455,0.519887 -0.0253,0 -0.30597,-0.276123 -0.62441,-0.613816 -0.556541,-0.589991 -0.594844,-0.613715 -0.984937,-0.611175 -0.318389,0.0021 -0.372847,0.02186 -0.252222,0.09195 0.126492,0.07366 0.152908,0.216408 0.152908,0.812825 0,0.445796 -0.04039,0.763829 -0.10541,0.828701 -0.08204,0.08204 -0.02819,0.103378 0.2413,0.09881 0.190246,-0.0038 0.297053,-0.02692 0.236474,-0.05131 z m 17.43383,-0.0668 c -0.0668,-0.08052 -0.097,-0.416052 -0.0853,-0.94267 l 0.0183,-0.81755 -0.34189,-0.02769 c -0.27528,-0.02226 -0.32052,-0.0062 -0.23241,0.08357 0.0699,0.07087 0.10973,0.373355 0.10973,0.833755 0,0.481838 -0.0363,0.746303 -0.10973,0.793598 -0.0701,0.04521 0.017,0.09017 0.2413,0.124206 0.19304,0.02921 0.38519,0.05867 0.42723,0.06604 0.0422,0.0068 0.03,-0.0442 -0.0272,-0.112522 z m -13.90429,-0.03683 c 0.15799,-0.05156 0.17526,-0.13462 0.17526,-0.846277 0,-0.77028 0.005,-0.789914 0.21412,-0.81948 0.13132,-0.01863 0.25837,0.03023 0.32883,0.126238 0.10414,0.142494 0.1143,0.133858 0.1143,-0.0922 v -0.24892 l -0.67091,0.05664 c -0.36899,0.03099 -0.78339,0.05664 -0.92075,0.05664 -0.19609,0 -0.24969,0.03988 -0.24969,0.186182 0,0.138684 0.0282,0.163322 0.10973,0.09652 0.06,-0.04953 0.20828,-0.103378 0.32883,-0.120396 0.21717,-0.03023 0.2192,-0.02329 0.24486,0.701446 0.0164,0.464185 -0.012,0.776936 -0.0765,0.854964 -0.0815,0.09881 -0.0691,0.121412 0.0617,0.1143 0.0904,-0.0048 0.24334,-0.03429 0.33955,-0.06604 z m 11.53838,-0.04877 c -0.0645,-0.07823 -0.0927,-0.390779 -0.0765,-0.854989 0.0253,-0.724764 0.0277,-0.731647 0.24486,-0.701446 0.1209,0.01673 0.26863,0.07087 0.32883,0.120396 0.0813,0.06655 0.10973,0.0447 0.10973,-0.08382 0,-0.144272 -0.0785,-0.183134 -0.46038,-0.229362 -0.25349,-0.03023 -0.68727,-0.05563 -0.96461,-0.05588 -0.48741,-7.34e-4 -0.50422,0.007 -0.50422,0.232156 0,0.219964 0.009,0.22479 0.16027,0.08763 0.0881,-0.07976 0.24892,-0.145034 0.3568,-0.145034 0.19177,0 0.19583,0.02044 0.16815,0.829284 l -0.0277,0.82931 0.30691,0.03302 c 0.16891,0.01812 0.34135,0.03962 0.38346,0.0475 0.0422,0.0081 0.0302,-0.04064 -0.0259,-0.108204 z m -9.10496,-0.02279 c -0.11405,-0.04623 -0.15799,-0.731114 -0.0472,-0.731114 0.034,0 0.22555,0.160274 0.42529,0.356108 0.25893,0.254203 0.45144,0.364388 0.67214,0.384886 l 0.30924,0.02845 -0.38834,-0.405282 c -0.24638,-0.257251 -0.34668,-0.418008 -0.27416,-0.440157 0.2065,-0.06325 0.42105,-0.299364 0.42105,-0.464032 0,-0.0889 -0.0787,-0.240538 -0.17526,-0.337185 -0.14859,-0.14859 -0.29233,-0.17526 -0.93833,-0.17526 -0.59334,0 -0.73954,0.02329 -0.65768,0.10541 0.14123,0.141478 0.14123,1.489659 0,1.631061 -0.082,0.08204 -0.009,0.103378 0.32881,0.09881 0.23876,-0.0038 0.38473,-0.02692 0.32448,-0.05131 z m -0.0927,-1.271347 c 0.0295,-0.389509 0.13335,-0.459943 0.48735,-0.328168 0.14275,0.05334 0.19736,0.144272 0.19736,0.329972 0,0.271958 -0.12421,0.362966 -0.49449,0.362966 -0.20041,0 -0.21539,-0.02794 -0.19022,-0.36477 z m 2.6057,1.188035 c -0.0635,-0.07747 -0.063,-0.1651 0.005,-0.291491 0.078,-0.145542 0.18212,-0.180848 0.53411,-0.180848 0.38459,0 0.44969,0.02718 0.54001,0.225298 0.0795,0.174752 0.0785,0.240284 -0.004,0.29144 -0.0584,0.03632 0.082,0.06325 0.31191,0.06071 l 0.41859,-0.0052 -0.4384,-0.898322 c -0.38293,-0.78453 -0.46652,-0.898525 -0.66005,-0.900074 -0.19177,-0.0015 -0.27335,0.102362 -0.60352,0.765505 -0.21006,0.421995 -0.43285,0.826465 -0.4952,0.89883 -0.097,0.11303 -0.0719,0.132842 0.18491,0.137668 0.23038,0.005 0.27724,-0.01868 0.20625,-0.10414 z m 0.34353,-0.997738 c 0.0805,-0.192278 0.16688,-0.349859 0.19076,-0.349859 0.024,0 0.11023,0.15748 0.19075,0.349859 l 0.14656,0.34986 h -0.33792 -0.33775 z m 3.82425,1.053592 c 0.3493,-0.132842 0.26586,-0.225552 -0.17171,-0.191008 -0.51468,0.04115 -0.80347,-0.143256 -0.88214,-0.562737 -0.12192,-0.649071 0.38481,-1.038174 0.96586,-0.741934 l 0.3126,0.159766 v -0.209804 c 0,-0.223266 -0.16434,-0.265023 -0.87688,-0.223266 -0.60666,0.03556 -0.96462,0.400152 -0.96462,0.982371 0,0.606171 0.91747,1.052855 1.61656,0.787095 z M 83.520909,75.131994 c 4.474198,-0.872896 6.18065,-1.09222 11.838243,-1.521655 4.926038,-0.373914 7.782178,-0.476784 13.285128,-0.478714 6.14538,-0.0021 8.9942,0.121412 16.13508,0.699922 3.73955,0.302895 5.97187,0.635635 11.19903,1.669136 0.68537,0.135636 1.26388,0.228092 1.28555,0.206248 0.0215,-0.02206 -0.0152,-0.888416 -0.0815,-1.925345 -0.0668,-1.036955 -0.18135,-2.891599 -0.2556,-4.121463 -0.0744,-1.22986 -0.15646,-2.435626 -0.18237,-2.679476 l -0.0472,-0.443375 -1.28926,-0.277927 c -1.69791,-0.365877 -3.00804,-0.579087 -5.19167,-0.844788 -6.32996,-0.770194 -12.18739,-1.29158 -16.442,-1.463566 -3.38058,-0.136588 -11.71767,-0.05522 -13.942815,0.136033 -9.504741,0.817383 -13.507961,1.280552 -16.788178,1.942355 -0.846541,0.170769 -1.681724,0.347376 -1.855981,0.392381 l -0.316756,0.08176 -0.05753,0.723306 c -0.119888,1.50382 -0.492641,7.702386 -0.492641,8.18937 v 0.363575 l 0.372695,-0.08433 c 0.204876,-0.04648 1.477594,-0.30005 2.828023,-0.563499 z M 132.27691,73.46561 c -0.62694,-0.115824 -1.80888,-0.310058 -2.62646,-0.432334 -0.81752,-0.122174 -1.49997,-0.235712 -1.51641,-0.251968 -0.0164,-0.01648 0.11303,-0.1143 0.28855,-0.217678 l 0.31846,-0.187706 -0.03,-2.6394 -0.03,-2.639411 -0.39459,-0.343066 -0.39459,-0.343047 0.35075,0.04712 c 0.19329,0.02588 1.14,0.147549 2.10457,0.270155 0.96461,0.122682 2.07619,0.265303 2.4703,0.317002 l 0.71643,0.09411 0.0612,0.738502 c 0.034,0.406182 0.0371,0.762564 0.008,0.791987 -0.03,0.02936 -0.21133,-0.125882 -0.40414,-0.344866 -0.38852,-0.441396 -0.43581,-0.459366 -1.778,-0.675241 l -0.94264,-0.151587 v 0.896488 c 0,1.035975 -0.11176,0.931636 1.16672,1.089421 0.42466,0.05238 0.90808,0.0698 1.07422,0.03863 l 0.30208,-0.05664 v 0.755035 c 0,0.415333 -0.024,0.755147 -0.0528,0.755147 -0.0295,0 -0.12827,-0.09563 -0.22073,-0.212954 -0.20269,-0.257817 -0.49748,-0.359392 -1.50447,-0.518741 l -0.76974,-0.121895 0.0247,1.149536 0.0247,1.14954 0.70152,0.103632 c 1.24488,0.183896 1.61501,0.154178 2.28892,-0.185166 0.33,-0.166116 0.61181,-0.290246 0.62621,-0.275844 0.0145,0.01434 -0.0422,0.387045 -0.12522,0.828142 -0.17856,0.943381 -0.0177,0.890397 -1.73731,0.573659 z m -49.004755,0.07493 c -0.02206,-0.03632 -0.06843,-0.411074 -0.103302,-0.83307 -0.07267,-0.879414 -0.02771,-0.92667 0.465579,-0.493268 0.434074,0.381127 0.802678,0.515163 1.416414,0.515163 1.111849,0 1.851713,-0.649478 1.496334,-1.313495 -0.101499,-0.189712 -0.570245,-0.36911 -1.509697,-0.577715 -0.928835,-0.20635 -1.527551,-0.560578 -1.740756,-1.030214 -0.226619,-0.499054 -0.213462,-1.060013 0.03718,-1.598257 0.360279,-0.773714 1.153742,-1.266345 2.335462,-1.449969 0.629625,-0.09774 1.823603,-0.06901 2.013966,0.04877 0.04976,0.03096 0.09088,0.367736 0.09088,0.752366 0,0.755335 -0.08631,0.864387 -0.402941,0.508579 -0.226161,-0.25402 -0.80427,-0.509489 -1.158575,-0.511838 -0.851751,-0.0057 -1.507637,0.398391 -1.507637,0.928759 0,0.389547 0.194005,0.50597 1.225362,0.735264 1.308112,0.290835 1.988617,0.668528 2.212139,1.227836 0.139167,0.348917 0.08872,1.110617 -0.09868,1.477619 -0.338683,0.663849 -1.243233,1.283681 -2.259759,1.548465 -0.522404,0.13589 -2.438616,0.185674 -2.511753,0.06477 z m 5.795191,-1.058901 0.284985,-0.268376 v -2.512812 -2.512896 l -0.309796,-0.309837 c -0.169926,-0.170383 -0.293995,-0.325722 -0.274449,-0.34515 0.084,-0.0842 5.210104,-0.547792 5.280289,-0.477617 0.02145,0.02165 0.03886,0.372811 0.03886,0.780352 v 0.740948 l -0.351053,-0.317246 c -0.344323,-0.311071 -0.364998,-0.317124 -1.083894,-0.317124 -0.403073,0 -0.91595,0.02511 -1.139724,0.05568 l -0.406882,0.05586 v 0.875357 0.875358 l 0.735812,-0.06129 c 0.680873,-0.05664 1.012495,-0.115748 1.522248,-0.27068 0.194056,-0.05888 0.197358,-0.04737 0.197358,0.698233 v 0.758231 l -0.25588,-0.189434 c -0.267792,-0.197993 -0.41082,-0.215493 -1.514831,-0.18514 l -0.674725,0.0185 -0.02667,1.140122 c -0.02267,0.967895 -0.0069,1.139683 0.104902,1.13728 0.374955,-0.0081 1.503731,-0.189713 1.906625,-0.30688 0.273355,-0.07922 0.655219,-0.292773 0.941426,-0.525895 0.540741,-0.440453 0.692531,-0.491385 0.580923,-0.195199 -0.0414,0.108458 -0.124968,0.482776 -0.186944,0.831657 -0.133604,0.752945 0.132842,0.661358 -2.496616,0.857931 -1.0128,0.07569 -2.137461,0.160274 -2.49919,0.188214 l -0.657682,0.05004 z m 36.881144,0.118204 -0.71623,-0.08949 -0.81227,-1.05227 c -1.01124,-1.310055 -2.79079,-3.55145 -2.81975,-3.55156 -0.012,-4.4e-5 -0.0101,0.8498 0.004,1.888571 l 0.0253,1.888658 0.34412,0.238074 c 0.33607,0.232334 0.47173,0.434647 0.2286,0.341536 -0.0668,-0.02591 -0.55031,-0.07569 -1.07414,-0.11049 -0.52387,-0.03505 -1.04602,-0.0889 -1.16037,-0.119405 -0.19939,-0.05316 -0.19304,-0.06553 0.15342,-0.29476 l 0.36144,-0.239115 v -2.406157 c 0,-1.619263 -0.033,-2.478129 -0.10059,-2.6263 -0.0549,-0.121005 -0.25349,-0.326123 -0.44005,-0.4556 -0.18695,-0.129489 -0.32913,-0.245541 -0.31621,-0.257845 0.0335,-0.03195 2.36934,0.13556 2.49609,0.178892 0.0577,0.01976 0.86299,1.054047 1.78948,2.298454 0.92646,1.244407 1.7178,2.300064 1.75847,2.345883 0.0404,0.04577 0.0739,-0.760382 0.0739,-1.791536 v -1.87483 l -0.41653,-0.391208 -0.41654,-0.391208 0.4384,0.05464 c 0.2413,0.03015 0.82454,0.08095 1.29642,0.113335 0.84328,0.05768 1.10741,0.142646 0.77285,0.248818 -0.0935,0.02954 -0.2714,0.13396 -0.39591,0.231902 l -0.22657,0.178105 -0.006,2.73397 c -0.003,1.503685 -0.033,2.794029 -0.066,2.867458 -0.0516,0.1143 -0.16078,0.12065 -0.77582,0.04394 z M 95.251477,71.933919 95.578375,71.664374 V 69.13491 c 0,-1.391204 -0.02466,-2.593352 -0.05461,-2.671426 -0.02997,-0.07813 -0.175006,-0.204165 -0.321945,-0.280274 -0.202184,-0.104419 -0.236728,-0.154813 -0.142748,-0.205714 0.188214,-0.101778 3.597219,-0.295997 4.165107,-0.237389 0.64737,0.06678 1.301771,0.394099 1.815821,0.908124 0.61138,0.611375 0.80109,1.060338 0.8385,1.984629 0.0282,0.69979 0.009,0.816127 -0.21361,1.271506 -0.44199,0.904083 -1.37592,1.62687 -2.456408,1.901053 -0.391262,0.09929 -3.533145,0.397853 -4.186743,0.397853 -0.05283,0 0.04978,-0.121158 0.22987,-0.269545 z m 3.721062,-0.85737 c 0.763168,-0.389359 1.029051,-0.979967 1.032151,-2.293102 0.002,-0.716767 -0.02819,-0.893653 -0.217167,-1.267033 -0.120904,-0.238709 -0.370789,-0.55437 -0.556082,-0.701528 -0.308712,-0.245262 -0.402031,-0.270126 -1.118032,-0.298203 l -0.781202,-0.03053 -5.95e-4,1.828302 c -3.25e-4,1.005581 -0.02667,2.100735 -0.05791,2.433704 l -0.05766,0.605404 0.700735,-0.04816 c 0.454787,-0.03127 0.825145,-0.111633 1.055193,-0.228905 z m 16.423921,0.763593 c -1.12748,-0.186259 -2.24711,-0.986249 -2.74173,-1.959133 -0.50742,-0.998011 -0.41189,-2.383645 0.22149,-3.211133 1.14127,-1.491311 3.55377,-1.706784 5.23689,-0.467762 2.3211,1.708689 1.66001,4.941688 -1.14575,5.60304 -0.62291,0.146787 -0.86156,0.152273 -1.57086,0.0349 z m 1.37371,-0.848708 c 0.28877,-0.154559 0.62728,-0.602036 0.727,-0.96108 0.0498,-0.179426 0.0909,-0.709397 0.0909,-1.177811 9.4e-4,-1.64656 -0.63467,-2.60816 -1.74716,-2.643171 -0.52116,-0.01642 -1.05004,0.22286 -1.30046,0.588289 -0.39309,0.573639 -0.45634,1.895308 -0.14478,3.015796 0.12929,0.463261 0.5159,0.995706 0.85888,1.18187 0.4274,0.232054 1.07741,0.230353 1.51516,-0.0039 z m -11.8967,0.592714 c 5e-5,-0.02715 0.11837,-0.136728 0.26337,-0.243789 l 0.26282,-0.194488 V 68.549929 65.95411 l -0.30686,-0.289458 c -0.16891,-0.159258 -0.30691,-0.307612 -0.30691,-0.329786 0,-0.07831 3.55933,-0.05827 4.10998,0.02326 1.13093,0.167335 2.09187,0.849858 2.57321,1.827675 0.25753,0.523006 0.28821,0.665149 0.28821,1.332659 0,0.598264 -0.0389,0.827196 -0.19761,1.148448 -0.29959,0.607959 -0.74209,1.072419 -1.30828,1.373266 -0.85852,0.456179 -1.3604,0.538201 -3.47054,0.567032 -1.04902,0.01433 -1.90731,0.0039 -1.90726,-0.02306 z m 4.0365,-0.893387 c 0.73113,-0.369377 1.00121,-1.040346 0.94416,-2.345725 -0.0417,-0.958711 -0.21844,-1.399012 -0.72994,-1.820616 -0.38875,-0.320421 -0.83449,-0.459339 -1.47391,-0.459339 h -0.49134 l -0.0247,2.41155 -0.0247,2.411552 0.70488,-5.7e-5 c 0.55669,-4.4e-5 0.78691,-0.04153 1.09545,-0.19746 z m 13.50174,-4.625711 c 0,-0.04816 0.0399,-0.08763 0.0876,-0.08763 0.048,0 0.0876,0.03945 0.0876,0.08763 0,0.04816 -0.0399,0.08763 -0.0876,0.08763 -0.048,0 -0.0876,-0.03945 -0.0876,-0.08763 z m -15.41164,22.396295 c 0,-0.2413 0.12726,-0.359892 0.25146,-0.235204 0.10135,0.101346 0.0183,0.345618 -0.13767,0.40541 -0.0744,0.02819 -0.11353,-0.03073 -0.11353,-0.169926 z m 1.33327,-0.162814 c -0.58859,-0.588594 0.17983,-1.379728 0.90285,-0.929436 0.23215,0.14478 0.28498,0.23368 0.28498,0.479348 0,0.594894 -0.75636,0.881507 -1.18783,0.450088 z m 0.83366,-0.21717 c 0.18135,-0.339064 -0.18542,-0.712927 -0.52279,-0.532511 -0.19456,0.10414 -0.23317,0.433274 -0.0701,0.596342 0.16078,0.160782 0.49172,0.125222 0.59286,-0.0635 z m 0.83718,0.311912 c -0.20599,-0.150876 -0.34333,-1.107516 -0.1585,-1.107516 0.0632,0 0.14428,-0.0098 0.17984,-0.02185 0.0361,-0.01206 0.0853,0.195072 0.10972,0.46035 0.0404,0.444322 0.0612,0.482295 0.26282,0.482295 0.20548,0 0.22098,-0.03226 0.24536,-0.504241 0.0196,-0.369951 0.06,-0.504241 0.15291,-0.504241 0.12116,0 0.17501,0.340843 0.13208,0.833044 -0.035,0.394005 -0.58603,0.609905 -0.92484,0.362128 z m -3.91942,-0.373278 -0.29044,-0.405765 -0.0272,0.36195 c -0.0202,0.270561 -0.0643,0.36195 -0.17526,0.362128 -0.12802,1.93e-4 -0.14478,-0.08407 -0.11887,-0.61882 0.0358,-0.739877 0.15163,-0.775818 0.60223,-0.185166 l 0.28918,0.379095 v -0.357556 c 0,-0.303429 0.0277,-0.357556 0.18212,-0.357556 0.16383,0 0.17957,0.04597 0.15976,0.46035 -0.045,0.911199 -0.17348,0.986332 -0.62082,0.361543 z m 5.24651,0.07696 c -0.03,-0.180848 -0.0549,-0.457124 -0.0554,-0.613816 l -10e-4,-0.284963 h 0.46475 c 0.2556,0 0.51211,0.04724 0.57,0.10541 0.14249,0.142494 0.13284,0.381076 -0.0227,0.536092 -0.11201,0.11176 -0.10693,0.146558 0.0417,0.281001 0.16154,0.14605 0.16154,0.305308 -1.9e-4,0.305308 -0.0417,0 -0.19711,-0.101854 -0.34539,-0.227076 -0.22428,-0.188468 -0.27841,-0.203962 -0.32144,-0.09169 -0.0282,0.07442 -0.0267,0.17653 0.005,0.227076 0.0323,0.05182 -0.017,0.09169 -0.11252,0.09169 -0.12751,0 -0.18263,-0.08128 -0.22352,-0.328854 z m 0.71443,-0.53721 c -0.0152,-0.07849 -0.11583,-0.15494 -0.22352,-0.169926 -0.15748,-0.02246 -0.1966,0.01452 -0.1966,0.185166 0,0.181102 0.0335,0.20701 0.22352,0.169926 0.14656,-0.02794 0.21412,-0.09144 0.1966,-0.185166 z m 1.29174,0.661924 c -0.017,-0.0569 -0.0508,-0.349428 -0.0744,-0.6509 l -0.0429,-0.548107 h 0.24384 c 0.13411,0 0.36711,-0.02466 0.51786,-0.05486 0.20904,-0.04166 0.27416,-0.02396 0.27416,0.07645 0,0.08534 -0.12268,0.15113 -0.35082,0.187452 -0.43213,0.06909 -0.46279,0.229362 -0.0434,0.229362 0.21412,0 0.3069,0.03988 0.3069,0.131318 0,0.08763 -0.0876,0.131318 -0.26281,0.131318 -0.18491,0 -0.26281,0.04242 -0.26281,0.143002 0,0.116332 0.0655,0.13462 0.3508,0.09627 0.47114,-0.06325 0.49194,0.16891 0.022,0.244348 -0.18084,0.02896 -0.40033,0.06706 -0.48768,0.08484 -0.0876,0.01774 -0.17322,-0.01408 -0.19024,-0.07036 z m -9.33646,-0.185928 c -0.60526,-0.644246 0.3811,-1.424788 1.00813,-0.797763 0.26281,0.262814 0.27223,0.477926 0.0335,0.78138 -0.24765,0.314579 -0.75395,0.32258 -1.0416,0.0164 z m 0.83683,-0.26863 c 0.0668,-0.26698 -0.0897,-0.481178 -0.35202,-0.481178 -0.22505,0 -0.40145,0.154178 -0.40145,0.350774 0,0.211074 0.18136,0.350799 0.45431,0.350799 0.18745,0 0.25671,-0.05105 0.29911,-0.220726 z m -1.60206,0.327456 c -0.0701,-0.0447 -0.0876,-0.24003 -0.0533,-0.61247 0.0429,-0.470535 0.0739,-0.546836 0.22378,-0.546836 0.14808,0 0.16637,0.04064 0.11912,0.274167 -0.0302,0.150876 -0.0549,0.426949 -0.0549,0.613817 0,0.341604 -0.0442,0.392684 -0.23444,0.271399 z m 11.50454,-0.284988 0.2225,-0.353263 -0.27612,-0.251968 c -0.24232,-0.221488 -0.25588,-0.256718 -0.11252,-0.289204 0.0904,-0.02024 0.25095,0.04039 0.35755,0.135128 l 0.19406,0.171958 0.10541,-0.23114 c 0.0579,-0.127254 0.17678,-0.23114 0.26363,-0.23114 0.14757,0 0.14605,0.02085 -0.0259,0.312394 l -0.18441,0.312395 0.29208,0.301422 c 0.28412,0.293192 0.28656,0.301422 0.0848,0.301422 -0.1143,0 -0.28558,-0.06883 -0.3808,-0.152908 -0.12929,-0.114046 -0.18314,-0.124968 -0.21184,-0.04216 -0.0612,0.174752 -0.28631,0.371119 -0.42517,0.371119 -0.094,0 -0.0696,-0.09068 0.0965,-0.353263 z m -12.73864,0.07087 c -0.10846,-0.05207 -0.19736,-0.148082 -0.19736,-0.213106 0,-0.137414 0.22707,-0.16002 0.30691,-0.03023 0.0688,0.111252 0.39459,0.11557 0.39459,0.0048 0,-0.04547 -0.10491,-0.13462 -0.23292,-0.197358 -0.32842,-0.161544 -0.44372,-0.371373 -0.29924,-0.54549 0.1966,-0.236728 0.88301,-0.16002 0.88301,0.09931 0,0.09093 -0.0473,0.112268 -0.15342,0.06883 -0.53665,-0.22098 -0.64097,-0.0795 -0.15291,0.20828 0.65116,0.384175 0.14732,0.941451 -0.54813,0.60612 z m 13.97919,-0.566851 c -0.0302,-0.32253 -0.0422,-0.598577 -0.0277,-0.613461 0.0152,-0.0149 0.21717,-0.05334 0.44979,-0.08509 0.35194,-0.04801 0.44244,-0.03048 0.54114,0.10414 0.065,0.0889 0.11837,0.211836 0.11837,0.273329 0,0.160782 -0.35647,0.46896 -0.54267,0.46896 -0.111,0 -0.1585,0.06629 -0.1585,0.218948 0,0.15494 -0.0472,0.218948 -0.16281,0.218948 -0.13666,0 -0.17171,-0.09347 -0.21717,-0.586384 z m 0.71544,-0.322326 c 0.0202,-0.103124 -0.0358,-0.143256 -0.19736,-0.143256 -0.18135,0 -0.22555,0.04216 -0.22555,0.216408 0,0.18796 0.0267,0.206502 0.19736,0.143256 0.10846,-0.03988 0.21006,-0.137414 0.22555,-0.216408 z m -15.50571,0.650163 c 0,-0.09398 0.0429,-0.370255 0.095,-0.613816 0.0752,-0.351307 0.13106,-0.442773 0.26891,-0.442773 0.12497,0 0.16078,0.04318 0.12776,0.152908 -0.11811,0.389077 -0.21336,0.939953 -0.17373,1.003707 0.024,0.03886 -0.0381,0.0701 -0.13691,0.0701 -0.1209,0 -0.18059,-0.05715 -0.18059,-0.17145 z m -1.03035,-0.06274 c -0.0599,-0.0242 -0.10973,-0.111252 -0.10973,-0.193294 0,-0.08204 -0.05334,-0.35692 -0.119884,-0.611098 -0.117094,-0.451511 -0.115824,-0.461493 0.06452,-0.435661 0.138424,0.01983 0.197864,0.108966 0.237744,0.356311 0.0731,0.453263 0.11176,0.465354 0.35298,0.111252 0.11582,-0.169672 0.28217,-0.308559 0.37074,-0.308889 0.0884,-3.28e-4 0.14783,0.03048 0.13132,0.06883 -0.063,0.148082 -0.73312,1.068121 -0.77463,1.062609 -0.024,-0.0032 -0.0935,-0.02565 -0.15291,-0.04978 z m 17.20526,-0.27056 c -0.0307,-0.180848 -0.0876,-0.453467 -0.12623,-0.605816 -0.0681,-0.267233 -0.0589,-0.278968 0.24917,-0.334823 0.17577,-0.0315 0.40838,-0.0795 0.51686,-0.10541 0.13767,-0.03302 0.19736,-0.0078 0.19736,0.08407 0,0.08001 -0.11836,0.15367 -0.30691,0.188722 -0.18872,0.03581 -0.3069,0.108204 -0.3069,0.188976 0,0.102616 0.0668,0.118872 0.3069,0.07391 0.38766,-0.07264 0.42068,0.106934 0.0434,0.238252 -0.39037,0.13589 -0.33071,0.283287 0.0876,0.216408 0.27196,-0.04343 0.3508,-0.02794 0.3508,0.06909 0,0.09906 -0.63195,0.315164 -0.92111,0.315164 -0.0196,0 -0.0607,-0.148082 -0.0914,-0.328829 z M 98.584228,87.176817 c -0.04648,-0.06045 -0.109728,-0.178562 -0.1397,-0.262814 -0.07366,-0.206502 -0.323291,-0.196088 -0.323291,0.0137 0,0.125222 -0.04496,0.155448 -0.180086,0.119888 -0.09931,-0.02591 -0.163322,-0.09119 -0.142748,-0.145288 0.02085,-0.05359 0.08839,-0.325628 0.150876,-0.603707 0.08738,-0.389382 0.145034,-0.496773 0.252222,-0.467309 0.07645,0.02105 0.237744,0.06604 0.35842,0.09931 0.272516,0.07595 0.526161,0.292379 0.526161,0.44864 0,0.06477 -0.07976,0.197612 -0.177546,0.295351 -0.13843,0.13843 -0.157734,0.214122 -0.08763,0.345008 0.04928,0.09195 0.08966,0.190246 0.08966,0.21717 0,0.09398 -0.241808,0.04953 -0.32639,-0.05994 z m 0.15113,-0.806933 c 0,-0.11049 -0.180848,-0.22352 -0.357962,-0.22352 -0.14859,0 -0.0823,0.337464 0.0729,0.372745 0.196088,0.0447 0.285014,-0.002 0.285014,-0.149352 z m 19.918632,0.499821 c -0.0493,-0.229108 -0.11456,-0.482981 -0.14605,-0.563931 -0.0442,-0.1143 0.0183,-0.167894 0.27927,-0.240284 0.54051,-0.150368 0.72476,-0.120904 0.8204,0.13081 0.0566,0.147574 0.0554,0.28128 -0.002,0.389408 -0.0691,0.129286 -0.0488,0.19177 0.0952,0.292836 l 0.18364,0.128016 -0.18898,0.0602 c -0.12141,0.03835 -0.2446,0.0099 -0.34333,-0.0795 -0.2225,-0.20193 -0.35951,-0.171704 -0.35951,0.07976 0,0.392557 -0.24156,0.251206 -0.33787,-0.197358 z m 0.67315,-0.492049 c 0.0202,-0.100838 -0.034,-0.143256 -0.18288,-0.143256 -0.26475,0 -0.32014,0.05486 -0.26586,0.261976 0.0335,0.127 0.0859,0.148336 0.23139,0.09474 0.10389,-0.03835 0.20142,-0.134112 0.21717,-0.213106 z m 1.06776,0.307975 c 0,-0.08915 -0.045,-0.290195 -0.0993,-0.446532 -0.082,-0.235712 -0.13538,-0.277241 -0.31112,-0.24384 -0.38657,0.07391 -0.18746,-0.216408 0.23469,-0.342392 0.50815,-0.151638 0.61382,-0.149606 0.61382,0.01105 0,0.07214 -0.0645,0.131318 -0.14326,0.131318 -0.11836,0 -0.13462,0.06502 -0.0917,0.376657 0.0282,0.20701 0.0777,0.443915 0.10896,0.526161 0.0429,0.11176 0.0107,0.149606 -0.12776,0.149606 -0.12141,0 -0.18491,-0.05537 -0.18491,-0.162052 z m -23.754701,-0.06883 c -0.182372,-0.127762 -0.198374,-0.188468 -0.145542,-0.548106 0.03302,-0.222504 0.06502,-0.473583 0.07264,-0.557962 0.0101,-0.112014 0.06172,-0.138684 0.19177,-0.09906 0.09804,0.03023 0.185928,0.06045 0.195072,0.06731 0.0088,0.0071 -0.04648,0.205486 -0.124206,0.440055 -0.133604,0.405816 -0.132842,0.433121 0.02397,0.54737 0.241554,0.176784 0.332664,0.109728 0.471932,-0.348107 0.09042,-0.295478 0.169926,-0.410921 0.286639,-0.410921 0.177546,0 0.159004,0.205994 -0.06858,0.767283 -0.09754,0.2413 -0.16002,0.284988 -0.407289,0.284988 -0.160528,0 -0.384124,-0.06452 -0.49685,-0.143256 z m 24.643861,-0.447944 c -0.1938,-0.773379 -0.19405,-0.789 -0.0196,-0.834542 0.1397,-0.03632 0.17501,0.02024 0.22454,0.362686 0.0323,0.22352 0.0798,0.494919 0.10566,0.603428 0.0335,0.140716 0.008,0.197358 -0.0907,0.197358 -0.0858,0 -0.16815,-0.123698 -0.21996,-0.328854 z m -25.924755,0.05461 c -0.415747,-0.23241 -0.538887,-0.795375 -0.234188,-1.071092 0.378714,-0.342723 1.154989,-0.0075 1.154989,0.49883 0,0.442316 -0.546075,0.781711 -0.920801,0.572262 z m 0.464744,-0.269189 c 0.05791,-0.05766 0.10541,-0.215138 0.10541,-0.349098 0,-0.187452 -0.05131,-0.256717 -0.220726,-0.299161 -0.411303,-0.103124 -0.624942,0.273888 -0.336017,0.593116 0.168148,0.186182 0.303505,0.202692 0.45118,0.05486 z m 26.078871,0.184404 c 0.0221,-0.06731 0.17272,-0.142494 0.33356,-0.166624 0.43396,-0.06477 0.44755,-0.262814 0.0183,-0.262814 -0.42009,0 -0.60074,-0.169164 -0.46056,-0.430835 0.12014,-0.224536 0.36503,-0.358394 0.65598,-0.358394 0.33511,0 0.28832,0.245618 -0.0528,0.279553 -0.42791,0.04216 -0.41173,0.23114 0.0227,0.263372 0.48062,0.03581 0.63939,0.252222 0.37686,0.514935 -0.22225,0.22225 -0.9572,0.354634 -0.89329,0.16129 z m 1.21092,-0.843432 c -0.098,-0.31778 -0.16789,-0.585039 -0.15494,-0.593954 0.0749,-0.05258 0.78654,-0.307848 0.85807,-0.307848 0.18516,0 0.0704,0.150368 -0.22098,0.289255 -0.37087,0.176784 -0.4171,0.371221 -0.0671,0.28354 0.38133,-0.09601 0.39436,-0.09576 0.43244,0.0072 0.0202,0.05334 -0.0838,0.14732 -0.23038,0.208026 -0.14631,0.06071 -0.26642,0.169164 -0.26642,0.240538 0,0.09042 0.0472,0.11049 0.15341,0.06604 0.28527,-0.119888 0.54814,-0.150622 0.54814,-0.0635 0,0.04724 -0.1966,0.167894 -0.43668,0.267792 l -0.43665,0.181356 z m -29.017446,0.418973 c -0.08992,-0.05537 -0.09195,-0.112268 -0.012,-0.262535 0.07442,-0.13843 0.07849,-0.306451 0.01516,-0.601954 -0.09652,-0.452578 -0.08357,-0.502108 0.115824,-0.425882 0.08204,0.03124 0.135382,0.16002 0.135382,0.323723 v 0.271958 l 0.2413,-0.1651 c 0.132842,-0.09093 0.31021,-0.149606 0.394589,-0.131064 0.169926,0.0381 0.211836,0.196596 0.05207,0.196596 -0.18796,0 -0.687883,0.445871 -0.687883,0.613079 0,0.2032 -0.101854,0.275844 -0.254483,0.181356 z m 9.242656,-0.331067 c -0.85842,-0.07917 -3.17469,-0.494751 -4.296834,-0.770694 -2.791971,-0.686565 -5.827174,-1.895932 -7.799174,-3.107563 -0.292278,-0.179578 -0.75725,-0.459384 -1.033196,-0.621716 -0.276123,-0.162052 -0.490322,-0.306679 -0.476301,-0.320726 0.01389,-0.01401 0.61468,0.24511 1.334821,0.576352 4.629579,2.127961 9.175184,3.495126 12.467984,3.75 0.7366,0.05715 0.94496,0.158242 0.84712,0.413614 -0.0554,0.144526 -0.21921,0.156972 -1.04443,0.08052 z m 2.41544,-0.476046 -0.47458,-0.539192 0.26615,-0.228346 c 0.14605,-0.125984 0.6905,-0.544423 1.20924,-0.9303 1.37208,-1.020547 1.25451,-0.901217 1.03779,-1.053033 -0.10236,-0.07188 -0.39421,-0.308026 -0.64859,-0.525145 -0.25448,-0.21717 -0.51424,-0.394843 -0.57744,-0.394843 -0.17221,0 -0.1397,-0.08687 0.10439,-0.278714 0.1204,-0.095 0.21895,-0.2286 0.21895,-0.297638 0,-0.208026 0.16282,-0.140716 0.29937,0.123698 0.11912,0.230886 0.943,0.922935 1.22887,1.032637 0.14123,0.05461 1.75446,-1.113434 1.83752,-1.329893 0.0462,-0.120396 0.0777,-0.11811 0.26946,0.02205 0.11938,0.08712 0.2187,0.186182 0.21997,0.220726 0.006,0.130048 -1.26833,1.234084 -3.97161,3.440478 l -0.85354,0.696646 0.17551,0.175514 0.17551,0.175514 0.19965,-0.177546 c 0.10973,-0.09728 1.03469,-0.95377 2.05552,-1.902689 1.02085,-0.948893 1.889,-1.724 1.92923,-1.722349 0.0404,0.0016 -0.008,0.07061 -0.10566,0.152908 -0.0981,0.08255 -0.3332,0.322022 -0.5221,0.531749 -0.27473,0.304902 -0.31793,0.39558 -0.2159,0.453289 0.0701,0.03988 0.67059,0.467309 1.33429,0.950265 l 1.20683,0.878103 -0.44681,0.536905 c -0.24562,0.295148 -0.48263,0.524663 -0.52634,0.509981 -0.0434,-0.01478 -0.60859,-0.528929 -1.25514,-1.142593 l -1.17534,-1.115822 -1.20063,1.115822 c -0.66035,0.613689 -1.22761,1.125931 -1.26053,1.138352 -0.033,0.01237 -0.27361,-0.219964 -0.53451,-0.516636 z m 5.55007,0.149098 c 0.0323,-0.08357 -0.29901,-0.415595 -0.97714,-0.981253 -0.56401,-0.470484 -1.09469,-0.91341 -1.17945,-0.984403 -0.0848,-0.07087 -0.175,-0.107188 -0.20117,-0.08204 -0.0363,0.03632 2.21775,2.173199 2.29251,2.173199 0.009,0 0.0383,-0.0569 0.065,-0.125984 z m 1.93096,0.256159 c -0.0856,-0.22352 0.14071,-0.39337 0.52753,-0.395097 0.99822,-0.0044 3.93249,-0.55753 5.79718,-1.092708 1.90925,-0.547955 4.78825,-1.652372 6.79762,-2.607529 0.50642,-0.240538 1.05885,-0.49629 1.22768,-0.567893 0.98367,-0.417195 -1.22557,0.933831 -2.89379,1.769694 -2.75343,1.379601 -6.39337,2.45138 -9.80748,2.887802 -1.35087,0.17272 -1.58435,0.173228 -1.64874,0.0057 z m -10.92701,-1.321029 c -0.13284,-0.07214 -0.2413,-0.09576 -0.2413,-0.05207 0,0.04318 -0.15798,0.07849 -0.35163,0.07849 -0.30572,0 -0.33716,-0.01755 -0.2413,-0.13462 0.0947,-0.115824 0.0823,-0.127762 -0.0866,-0.08382 -0.27665,0.07112 -0.23977,-0.03302 0.0851,-0.239776 0.15139,-0.09652 0.28159,-0.215138 0.2889,-0.262814 0.008,-0.04801 -0.003,-0.05766 -0.0233,-0.02144 -0.0202,0.03632 -0.0729,0.0442 -0.11709,0.01673 -0.0442,-0.02743 -0.08,-0.01199 -0.08,0.03378 0,0.04623 -0.0508,0.10287 -0.11252,0.127 -0.0673,0.02591 -0.11252,-0.02351 -0.11252,-0.122174 0,-0.09093 0.0233,-0.165608 0.0521,-0.165608 0.0282,0 0.12776,-0.05537 0.22072,-0.123698 0.15774,-0.11557 0.15291,-0.120142 -0.0709,-0.07772 -0.14529,0.02769 -0.23953,0.0073 -0.23953,-0.05207 0,-0.05359 0.0528,-0.09754 0.11811,-0.09754 0.0648,0 0.1933,-0.08407 0.28499,-0.186944 0.16561,-0.185166 0.16561,-0.18669 -0.0302,-0.125476 -0.23521,0.07315 -0.26696,-0.07645 -0.0434,-0.206502 0.12141,-0.07087 0.12624,-0.09068 0.0221,-0.095 -0.11253,-0.0047 -0.11126,-0.02084 0.009,-0.112522 0.1524,-0.116078 0.16688,-0.15113 0.16688,-0.413741 0,-0.09652 0.03,-0.17526 0.0666,-0.17526 0.0719,0 0.32736,0.512318 0.32987,0.661416 8.5e-4,0.04978 0.0881,0.184404 0.1938,0.297587 0.14478,0.15494 0.17171,0.244856 0.10821,0.363194 -0.12294,0.229108 -0.10795,0.25588 0.14046,0.25588 0.1237,0 0.20244,0.03581 0.17577,0.07849 -0.0272,0.0442 -0.18517,0.04775 -0.36051,0.0082 -0.22326,-0.05029 -0.30254,-0.0414 -0.27871,0.03099 0.0183,0.05563 0.13868,0.114046 0.26751,0.129286 0.2446,0.02896 0.33198,0.191262 0.10262,0.191262 -0.0724,0 -0.13132,0.03962 -0.13132,0.08763 0,0.04801 0.0589,0.08763 0.13132,0.08763 0.0724,0 0.13132,0.03962 0.13132,0.08763 0,0.04801 -0.0465,0.08763 -0.1044,0.08763 -0.0577,0 -0.0277,0.05766 0.066,0.129286 0.23267,0.175768 -0.008,0.173228 -0.33401,-0.0035 z m 0.10973,-1.298321 c 0,-0.01818 -0.0599,-0.08306 -0.1336,-0.144272 -0.11176,-0.09271 -0.12421,-0.08738 -0.0785,0.03302 0.0473,0.122936 0.21158,0.209042 0.21158,0.110998 z m 12.64632,0.539623 0.0253,-0.896544 0.39126,-0.144526 c 0.37305,-0.137668 0.54488,-0.12827 0.98991,0.05207 0.1392,0.05664 0.15291,-0.0082 0.15291,-0.690346 V 80.80077 l 0.35608,-0.171958 c 0.35108,-0.169672 0.36137,-0.169672 0.74529,-0.005 0.21412,0.09169 0.38933,0.207518 0.38933,0.25781 0,0.124206 -0.0363,0.116332 -0.38491,-0.0795 l -0.30259,-0.169926 -0.0295,0.608635 c -0.0282,0.594767 -0.024,0.60861 0.18516,0.608381 0.20117,-1.96e-4 0.20422,-0.0074 0.0521,-0.118364 -0.0932,-0.06858 -0.13411,-0.162814 -0.0968,-0.22352 0.0498,-0.08001 0.094,-0.08128 0.18872,-0.0026 0.0889,0.07391 0.12395,0.07493 0.12395,0.0043 0,-0.05385 -0.0389,-0.09881 -0.0876,-0.09881 -0.048,0 -0.0876,-0.09881 -0.0876,-0.218948 0,-0.2286 0.1204,-0.291567 0.22759,-0.118364 0.034,0.05537 0.0698,0.285877 0.0795,0.512165 0.009,0.226568 0.0488,0.463296 0.0881,0.526796 0.0549,0.08865 0.0227,0.100584 -0.1397,0.0508 -0.65215,-0.200152 -0.60562,-0.255879 -0.60562,0.728421 0,0.532943 -0.035,0.887146 -0.0876,0.887146 -0.0498,0 -0.0876,-0.262814 -0.0876,-0.613816 0,-0.546557 -0.0183,-0.613817 -0.16814,-0.613817 -0.0922,0 -0.35225,-0.07874 -0.57727,-0.17526 -0.22479,-0.09652 -0.43007,-0.17526 -0.45565,-0.17526 -0.0259,0 -0.0312,0.410642 -0.0126,0.912572 l 0.0335,0.912571 -0.30879,0.05105 c -0.65481,0.108204 -0.62461,0.15113 -0.59693,-0.843483 z m -14.61935,0.529666 c -0.23241,-0.07849 -0.35751,-0.101346 -0.8111,-0.148082 -0.05994,-0.0062 -0.109728,-0.09804 -0.109728,-0.204216 0,-0.14986 -0.02329,-0.169672 -0.10541,-0.08763 -0.05791,0.05766 -0.24511,0.101854 -0.416535,0.09804 l -0.311353,-0.0071 0.26891,-0.11811 c 0.148082,-0.06477 0.321538,-0.181356 0.385699,-0.258648 0.104394,-0.125984 0.09169,-0.131064 -0.121412,-0.04978 -0.303099,0.114808 -0.664998,0.116586 -0.664998,0.0028 0,-0.04801 0.05766,-0.08763 0.127762,-0.08763 0.175514,0 0.574091,-0.188468 0.574091,-0.271399 0,-0.03759 -0.13843,-0.04597 -0.306908,-0.01831 -0.19939,0.03251 -0.306908,0.01503 -0.306908,-0.04953 0,-0.05486 0.13208,-0.09931 0.293319,-0.09931 0.177546,0 0.353238,-0.06629 0.444855,-0.167386 0.144526,-0.159766 0.142748,-0.169926 -0.02591,-0.223774 -0.09957,-0.03124 -0.298424,0.0063 -0.453034,0.08585 -0.151638,0.07849 -0.29403,0.124206 -0.316636,0.101854 -0.06299,-0.06299 0.400507,-0.498068 0.530047,-0.498068 0.06299,0 0.185166,-0.07874 0.272796,-0.17526 0.08763,-0.09652 0.11811,-0.17526 0.06858,-0.17526 -0.04978,0 -0.1397,0.05893 -0.199898,0.131318 -0.127,0.1524 -0.172212,0.158242 -0.349225,0.04648 -0.108712,-0.06883 -0.09017,-0.123952 0.11557,-0.338354 l 0.245364,-0.255879 -0.246888,0.0414 -0.246888,0.0414 0.262814,-0.224282 c 0.14478,-0.123698 0.307518,-0.225552 0.36195,-0.227584 0.129032,-0.0041 0.309753,-0.222504 0.2413,-0.291516 -0.02946,-0.02946 -0.16637,0.03073 -0.305079,0.13335 -0.138684,0.102362 -0.271958,0.166624 -0.296114,0.14224 -0.08255,-0.08255 0.169672,-0.497256 0.390906,-0.64168 l 0.22098,-0.144526 -0.218948,0.05944 -0.218948,0.05944 0.197358,-0.213614 c 0.211074,-0.228346 0.263906,-0.385471 0.09474,-0.281 -0.07214,0.0447 -0.0823,0.0137 -0.03404,-0.104394 0.03708,-0.09195 0.107188,-0.303607 0.15494,-0.469519 l 0.08687,-0.301676 0.23241,0.477113 c 0.127759,0.262255 0.197609,0.502362 0.154939,0.533248 -0.0422,0.03073 0.007,0.08306 0.10973,0.115824 0.24434,0.07772 0.23901,0.201422 -0.0101,0.245364 -0.17145,0.03023 -0.15087,0.05563 0.15291,0.193294 0.30208,0.136398 0.32675,0.166878 0.17755,0.220726 -0.16815,0.06045 -0.16739,0.06502 0.0221,0.166878 0.23342,0.12446 0.2556,0.272796 0.0417,0.276403 -0.14173,0.0026 -0.14122,0.01187 0.009,0.125476 0.0891,0.06731 0.13614,0.164846 0.10439,0.216408 -0.0312,0.05156 0.004,0.09373 0.0787,0.09373 0.0752,0 0.1364,0.03505 0.1364,0.07772 0,0.12446 -0.33706,0.177546 -0.6193,0.09652 -0.16002,-0.04597 -0.2413,-0.04293 -0.21031,0.0073 0.0277,0.04521 0.22682,0.126492 0.44163,0.180594 0.60553,0.1524 0.59614,0.290449 -0.0152,0.218948 l -0.51788,-0.06045 0.23368,0.234442 c 0.13106,0.13208 0.37709,0.258089 0.56088,0.287858 0.40816,0.06655 0.36757,0.236474 -0.0493,0.206502 l -0.30694,-0.02206 0.2413,0.13462 c 0.33401,0.186182 0.30198,0.240538 -0.11811,0.20066 l -0.35897,-0.03429 0.20548,0.16764 c 0.11278,0.09195 0.31405,0.205994 0.44664,0.252476 0.13284,0.04648 0.21894,0.120904 0.19177,0.164084 -0.0754,0.12192 -0.49269,0.09322 -0.77506,-0.05461 -0.1397,-0.0729 -0.27724,-0.109728 -0.305609,-0.08128 -0.06883,0.06883 0.335099,0.377444 0.581729,0.443738 0.10846,0.02921 0.19736,0.08814 0.19736,0.131064 0,0.04293 -0.0101,0.07493 -0.0221,0.07036 -0.012,-0.0041 -0.1402,-0.0475 -0.28498,-0.09652 z m -0.006,-2.744277 c -0.1933,-0.14605 -0.475949,-0.175006 -0.475949,-0.04801 0,0.08484 0.535939,0.267792 0.607439,0.207518 0.0208,-0.01736 -0.0384,-0.0889 -0.13132,-0.159766 z m -0.16917,-0.484175 c -0.03,-0.04801 -0.0912,-0.08763 -0.1364,-0.08763 -0.0455,0 -0.0825,0.03962 -0.0825,0.08763 0,0.04801 0.0612,0.08763 0.1364,0.08763 0.0752,0 0.11252,-0.03962 0.0825,-0.08763 z m 16.17899,3.078569 c 0,-0.154686 -0.0566,-0.275285 -0.14452,-0.308991 -0.15037,-0.05766 -0.0914,-0.18288 0.0853,-0.18288 0.0566,0 0.11481,-0.13081 0.13005,-0.290347 0.0361,-0.376707 0.2253,-0.321183 0.26446,0.07772 0.0158,0.164846 0.0726,0.352323 0.12599,0.416458 0.0711,0.0856 0.0688,0.134112 -0.0101,0.18288 -0.0584,0.03632 -0.0815,0.13208 -0.0508,0.212598 0.0434,0.113538 0.005,0.146304 -0.17272,0.146304 -0.1938,0 -0.22834,-0.03886 -0.22834,-0.254 z m 1.7538,-2.275078 v -2.277516 l 0.39801,-0.233172 c 0.21895,-0.128016 0.46561,-0.238506 0.54814,-0.244602 0.0826,-0.006 0.43609,0.101346 0.7858,0.239014 l 0.63576,0.249682 v 0.863041 c 0,0.824357 0.008,0.863041 0.18847,0.863041 0.10337,0 0.4192,0.08407 0.70149,0.187198 l 0.51326,0.187198 v 0.733654 c 0,0.430632 -0.0361,0.733654 -0.0876,0.733654 -0.0513,0 -0.0876,-0.287401 -0.0876,-0.686816 V 81.26518 l -0.30691,-0.09449 -0.30693,-0.09449 v 0.874141 c 0,0.60612 -0.0292,0.855828 -0.095,0.815061 -0.0617,-0.0381 -0.0841,-0.363652 -0.0632,-0.924154 0.0233,-0.643788 0.003,-0.876275 -0.08,-0.908152 -0.0861,-0.03302 -0.11176,0.182372 -0.11176,0.954202 v 0.997128 l -0.27613,0.09652 c -0.15189,0.05283 -0.30975,0.09652 -0.35082,0.09652 -0.0414,0 -0.0747,-0.587604 -0.0747,-1.305865 v -1.30589 l -0.35252,-0.141224 c -0.19406,-0.07772 -0.39121,-0.141224 -0.43841,-0.141224 -0.0528,0 -0.0858,0.605155 -0.0858,1.575029 v 1.574876 l -0.37269,0.09652 c -0.20524,0.05283 -0.44171,0.116332 -0.52614,0.140716 -0.14326,0.04166 -0.15291,-0.10541 -0.15291,-2.23299 z m 2.27993,-0.02465 c 0,-0.04801 -0.0389,-0.06325 -0.0876,-0.03353 -0.048,0.02997 -0.0876,0.09373 -0.0876,0.141732 0,0.04801 0.0389,0.06325 0.0876,0.03353 0.048,-0.02997 0.0876,-0.09373 0.0876,-0.141732 z m -0.0508,-0.632689 c -0.0307,-0.08001 -0.0958,-0.14605 -0.14428,-0.14605 -0.048,0 -0.0635,0.06299 -0.035,0.138684 0.0295,0.07645 0.0528,0.18288 0.0528,0.236474 0,0.06731 0.0282,0.06985 0.0907,0.0075 0.0498,-0.04978 0.065,-0.156718 0.035,-0.236474 z m -0.0384,-0.869671 -10e-4,-0.635762 -0.51295,-0.197358 c -0.28214,-0.108458 -0.53805,-0.197358 -0.56865,-0.197358 -0.0307,0 -0.0554,0.276124 -0.0554,0.613817 0,0.444322 0.0312,0.613816 0.11354,0.613816 0.12421,0 0.14631,-0.329057 0.034,-0.504215 -0.0404,-0.06325 -0.0307,-0.109728 0.0227,-0.109728 0.0513,0 0.0932,-0.07874 0.0932,-0.17526 0,-0.09652 0.0389,-0.17526 0.0876,-0.17526 0.0488,0 0.0876,0.23241 0.0876,0.520954 0,0.286537 0.0323,0.54069 0.0709,0.56487 0.0389,0.02397 0.0546,-0.1905 0.0335,-0.477113 -0.0253,-0.348615 -0.005,-0.521005 0.0607,-0.521005 0.0554,0 0.10185,0.161544 0.10719,0.372694 0.005,0.205232 0.0422,0.471348 0.0836,0.591922 0.0546,0.158496 0.0699,0.06883 0.0572,-0.328981 -0.017,-0.533248 0.0399,-0.691261 0.14834,-0.409219 0.0295,0.07645 0.0528,0.352526 0.0528,0.613816 0,0.261137 0.0196,0.475158 0.0434,0.475158 0.024,0 0.0434,-0.286157 0.0422,-0.635762 z m -1.79636,0.285014 c 0.03,-0.04801 0.0126,-0.08763 -0.0384,-0.08763 -0.0513,0 -0.0932,0.03962 -0.0932,0.08763 0,0.04801 0.0177,0.08763 0.0384,0.08763 0.0215,0 0.0632,-0.03962 0.0932,-0.08763 z m 0.0434,-0.613817 c 0,-0.04801 -0.0389,-0.08763 -0.0876,-0.08763 -0.048,0 -0.0876,0.03962 -0.0876,0.08763 0,0.04801 0.0399,0.08763 0.0876,0.08763 0.048,0 0.0876,-0.03962 0.0876,-0.08763 z m -21.045596,3.508299 c -0.07239,-0.04648 -0.202438,-0.06274 -0.289204,-0.03531 -0.08687,0.02718 -0.205486,0.0098 -0.262814,-0.0381 -0.05791,-0.04801 -0.223774,-0.102616 -0.368478,-0.12192 l -0.262814,-0.03454 0.253492,-0.107188 c 0.320066,-0.135128 0.249936,-0.227076 -0.07798,-0.102362 -0.133858,0.05105 -0.264464,0.07188 -0.289864,0.04648 -0.05715,-0.05664 -0.05207,-0.05893 0.355574,-0.244602 0.180848,-0.08204 0.328829,-0.19177 0.328829,-0.243586 0,-0.05283 -0.116332,-0.02534 -0.2667,0.06325 -0.230632,0.136144 -0.277546,0.1397 -0.346101,0.02946 -0.09931,-0.160528 0.04293,-0.261417 0.371755,-0.263372 0.132842,-7.37e-4 0.2413,-0.04242 0.2413,-0.09322 0,-0.05817 -0.119126,-0.06934 -0.328829,-0.03023 -0.362712,0.06858 -0.366852,0.08738 0.10414,-0.4921 0.09804,-0.120904 0.121666,-0.169926 0.05207,-0.109728 -0.234442,0.204216 -0.298018,0.110998 -0.08407,-0.123952 0.117094,-0.128016 0.156718,-0.200406 0.08814,-0.16129 -0.09677,0.05664 -0.109728,0.03505 -0.05766,-0.09576 0.03708,-0.09195 0.07442,-0.20701 0.08357,-0.2556 0.0088,-0.04801 0.05283,-0.146558 0.09906,-0.218948 0.04547,-0.07214 0.08585,-0.17145 0.08992,-0.218948 0.0095,-0.11938 0.144526,-0.597688 0.192278,-0.683413 0.02145,-0.03835 0.113538,0.07595 0.204216,0.254204 0.09093,0.178054 0.14605,0.354558 0.122682,0.392353 -0.02329,0.0381 -0.0023,0.09373 0.04648,0.123952 0.129286,0.07976 0.109982,0.240538 -0.0202,0.175006 -0.05994,-0.03048 -0.04648,-0.0033 0.03073,0.06071 0.07696,0.0635 0.14605,0.155702 0.152654,0.203708 0.0069,0.04801 0.07493,0.160528 0.15113,0.249428 0.202184,0.236474 0.102362,0.264745 -0.172212,0.04877 -0.130302,-0.102616 -0.264745,-0.159004 -0.298374,-0.125222 -0.07823,0.07849 0.389483,0.484861 0.557555,0.484861 0.227076,0 0.133096,0.162814 -0.1143,0.198882 l -0.2413,0.03531 0.285014,0.06909 c 0.432104,0.105156 0.350012,0.25273 -0.11176,0.20066 -0.331801,-0.03759 -0.38001,-0.02466 -0.295352,0.07747 0.05537,0.06706 0.273609,0.198374 0.484251,0.29144 0.442214,0.195834 0.502108,0.30706 0.119634,0.223266 -0.31374,-0.06883 -0.333425,-5.92e-4 -0.06604,0.228092 l 0.197358,0.16891 -0.2413,-0.05486 c -0.132842,-0.03023 -0.2413,-0.03226 -0.2413,-0.0041 0,0.02769 0.108458,0.109728 0.2413,0.181356 l 0.2413,0.13081 -0.262813,0.0022 c -0.14478,0.0012 -0.32225,-0.03581 -0.394589,-0.08204 z M 97.025003,81.5861 c 0.02997,-0.04801 -0.0076,-0.08763 -0.08255,-0.08763 -0.07518,0 -0.136398,0.03962 -0.136398,0.08763 0,0.04801 0.03708,0.08763 0.08255,0.08763 0.04547,0 0.106934,-0.03962 0.136398,-0.08763 z m 0.07544,-0.657682 c 0.02769,-0.07239 0.01199,-0.131318 -0.03505,-0.131318 -0.04648,0 -0.08509,0.05893 -0.08509,0.131318 0,0.07214 0.01579,0.131318 0.03505,0.131318 0.01894,0 0.05766,-0.05893 0.08509,-0.131318 z m 24.170917,1.052246 c 0,-0.43843 0.0361,-0.745363 0.0876,-0.745363 0.0518,0 0.0876,0.306933 0.0876,0.745363 0,0.438429 -0.0361,0.745363 -0.0876,0.745363 -0.0518,0 -0.0876,-0.306883 -0.0876,-0.745363 z m 0.26281,0.04369 c 0,-0.40922 0.0363,-0.701523 0.0876,-0.701523 0.0513,0 0.0876,0.292303 0.0876,0.701523 0,0.409219 -0.0363,0.701548 -0.0876,0.701548 -0.0513,0 -0.0876,-0.292303 -0.0876,-0.701548 z m -16.93273,-1.207986 c -0.42906,-0.435204 -0.78016,-0.830656 -0.78016,-0.878764 0,-0.148336 1.76154,-1.77137 1.92222,-1.77137 0.17856,0 1.58537,1.413129 1.58537,1.592427 0,0.109982 -1.53165,1.598829 -1.82867,1.777594 -0.0836,0.04978 -0.35195,-0.1651 -0.89878,-0.719887 z m 1.46789,-0.23368 0.60191,-0.565226 -0.54864,-0.494487 -0.54864,-0.494488 0.19761,-0.162052 c 0.19659,-0.161544 0.2004,-0.16002 0.59545,0.226822 0.2187,0.214122 0.43449,0.389027 0.47953,0.389027 0.045,0 -0.1524,-0.236474 -0.43874,-0.526187 -0.28636,-0.289356 -0.56609,-0.526161 -0.62166,-0.526161 -0.0554,0 -0.46393,0.34163 -0.90747,0.759181 l -0.80647,0.759181 0.59545,0.600024 c 0.32748,0.330022 0.64132,0.600049 0.69746,0.600049 0.0566,0 0.37284,-0.254482 0.70386,-0.565226 z m -1.01727,0.04496 c -0.13131,-0.245872 -0.11277,-0.286791 0.0848,-0.181102 0.0965,0.05156 0.17526,0.151638 0.17526,0.222504 0,0.183134 -0.15291,0.158496 -0.2603,-0.0414 z m 7.4287,0.453873 c -0.2824,-0.175006 -0.28921,-0.212852 -0.0937,-0.528498 0.23902,-0.385648 0.57645,-0.72037 0.72629,-0.72037 0.19075,0 0.52928,0.24765 0.52928,0.387096 0,0.08382 -0.84978,1.02898 -0.91137,1.013664 -0.005,-0.0013 -0.11811,-0.06934 -0.2507,-0.151638 z m -1.42037,-0.960222 c -0.22631,-0.194564 -0.23317,-0.220726 -0.10185,-0.365455 0.078,-0.0856 0.14122,-0.263627 0.14122,-0.394894 0,-0.188976 -0.063,-0.265024 -0.30046,-0.364236 -0.43853,-0.183134 -1.18656,-0.249682 -1.58168,-0.140716 -0.4904,0.135382 -0.49672,0.04623 -0.012,-0.168148 1.42591,-0.630758 2.73447,-0.308686 3.3072,0.813943 l 0.17272,0.338455 -0.19762,0.23876 c -0.17068,0.205994 -0.2653,0.239522 -0.69083,0.24511 -0.39936,0.0054 -0.53949,-0.03302 -0.73657,-0.202438 z M 75.935484,79.519392 c 0,-0.02743 0.480114,-1.008304 1.066869,-2.179802 l 1.066835,-2.129892 -1.030696,-1.948561 c -0.566867,-1.071728 -1.013473,-1.965813 -0.992414,-1.986862 0.02085,-0.02104 0.251486,-0.09563 0.51193,-0.166192 1.638945,-0.442229 2.819181,-0.746419 2.895875,-0.746419 0.07239,0 0.0315,0.319501 -0.05354,0.419308 -0.01137,0.01357 -0.608531,0.185826 -1.326396,0.38274 -0.717893,0.196774 -1.350861,0.383105 -1.406573,0.413763 -0.0667,0.03655 0.241224,0.667705 0.895385,1.83656 l 0.996648,1.780845 -0.917278,1.842313 c -0.656574,1.318768 -0.873666,1.829892 -0.763846,1.798624 1.749511,-0.49817 3.564615,-0.880516 5.056171,-1.065199 0.580232,-0.07188 1.095624,-0.131318 1.145296,-0.13335 0.04978,-0.0015 -0.26497,-0.15113 -0.698919,-0.332715 -1.212771,-0.507086 -1.211855,-0.505993 -0.457792,-0.569722 0.360649,-0.03048 0.877473,-0.08153 1.148618,-0.11303 l 0.492959,-0.05766 v 0.669747 0.669747 h -0.251257 c -0.79312,0 -4.439574,0.799084 -6.423104,1.407567 -0.892523,0.273888 -0.95487,0.287426 -0.954834,0.208534 z M 140.78272,79.33892 c -1.55022,-0.46978 -3.41887,-0.909289 -5.02029,-1.180747 l -1.68801,-0.286232 V 77.224545 76.57715 l 0.63577,0.05994 c 0.34965,0.03302 0.87111,0.08484 1.15877,0.114808 l 0.52301,0.05512 -0.9143,0.394589 -0.9143,0.394589 0.34743,0.06198 c 0.191,0.03429 0.92997,0.145288 1.64188,0.246888 0.71196,0.101854 1.96116,0.349936 2.77597,0.551739 0.81483,0.20193 1.47274,0.347142 1.46205,0.323037 -0.0107,-0.02397 -0.40602,-0.836625 -0.87849,-1.805559 l -0.85892,-1.761642 0.55153,-1.000557 c 0.91443,-1.658823 1.39614,-2.565465 1.37414,-2.586321 -0.0189,-0.01774 -0.98392,-0.298549 -2.36657,-0.688454 -0.47386,-0.133528 -0.50421,-0.158445 -0.50421,-0.412181 0,-0.185445 0.0361,-0.256375 0.11354,-0.226314 0.063,0.02408 0.4276,0.129057 0.81112,0.233502 1.77818,0.483979 2.58269,0.735119 2.58269,0.80628 0,0.04221 -0.46032,0.931128 -1.02306,1.97467 l -1.02304,1.89738 1.06693,2.135886 c 0.58679,1.17475 1.06693,2.155418 1.06693,2.179269 0,0.0729 -0.19025,0.03429 -0.92078,-0.186944 z M 78.259391,77.856894 c 0.378191,-0.171958 1.834949,-0.503174 2.028464,-0.461112 0.141351,0.03048 -2.037679,0.607136 -2.222927,0.587934 -0.03777,-0.0039 0.04978,-0.06096 0.194564,-0.127 z m 59.892719,-0.1778 c -0.85265,-0.221742 -1.01844,-0.285014 -0.65768,-0.250698 0.576,0.05486 1.85118,0.366344 1.96865,0.481025 0.13005,0.127254 -0.0754,0.09093 -1.31099,-0.230378 z M 78.127859,77.340291 c 0,-0.07671 1.144468,-0.413512 1.29206,-0.380238 0.08613,0.01938 -0.112192,0.119888 -0.446316,0.226314 -0.577573,0.183642 -0.845742,0.23241 -0.845742,0.154686 z m 60.528471,-0.126492 c -0.5622,-0.146558 -0.77505,-0.334594 -0.26281,-0.23241 0.38123,0.07645 1.11803,0.312598 1.11803,0.358597 0,0.0635 -0.28923,0.02125 -0.85499,-0.126492 z M 78.566315,76.591811 c 0,-0.04115 0.124206,-0.11811 0.276113,-0.170942 0.336154,-0.117094 0.492844,-0.125476 0.377132,-0.02044 -0.133045,0.121158 -0.653283,0.273355 -0.653283,0.191262 z m 60.331175,0.02044 c -0.0724,-0.02743 -0.22556,-0.08433 -0.341,-0.127254 -0.11481,-0.04242 -0.18821,-0.09906 -0.1618,-0.124968 0.0673,-0.06731 0.76604,0.152654 0.76604,0.241808 0,0.08204 -0.0666,0.08484 -0.26281,0.01048 z M 78.917072,75.7986 c 0.172847,-0.11176 0.37593,-0.11176 0.306913,0 -0.02974,0.04801 -0.140767,0.08712 -0.24638,0.08611 -0.156235,-0.0011 -0.167665,-0.01724 -0.06065,-0.08611 z m 59.498118,0 c -0.0688,-0.11176 0.13411,-0.11176 0.3069,0 0.10694,0.06883 0.0958,0.08534 -0.0607,0.08611 -0.10567,7.31e-4 -0.21692,-0.0381 -0.24613,-0.08611 z M 78.785534,74.062299 c 0.04808,-0.0508 0.205994,-0.120396 0.35081,-0.154178 0.183718,-0.04318 0.236626,-0.03353 0.175438,0.0315 -0.04808,0.0508 -0.205994,0.120396 -0.35081,0.154178 -0.183718,0.04318 -0.236626,0.03353 -0.175438,-0.0315 z m 59.695426,-0.02024 c -0.10846,-0.04394 -0.19736,-0.104648 -0.19736,-0.135636 0,-0.07569 0.46088,0.04191 0.56556,0.144526 0.10591,0.103378 -0.10084,0.09881 -0.3683,-0.009 z M 78.478622,73.513484 c 0,-0.07772 0.560771,-0.258674 0.789201,-0.25494 0.09586,0.0016 0.08613,0.02845 -0.0366,0.09982 -0.23749,0.137922 -0.752688,0.244094 -0.752688,0.15494 z m 60.271498,-0.03048 c -0.40429,-0.105918 -0.59052,-0.23114 -0.32761,-0.220726 0.28011,0.01124 0.87569,0.215392 0.78192,0.267512 -0.048,0.02718 -0.25248,0.0059 -0.45426,-0.04699 z m -60.3863,-0.627396 c 0.311834,-0.136652 1.06744,-0.272974 0.97885,-0.176784 -0.07008,0.07595 -0.947092,0.313741 -1.12713,0.305384 -0.07239,-0.0034 -0.0056,-0.06121 0.148209,-0.129032 z m 60.41663,0.0046 c -0.55088,-0.151384 -0.64557,-0.258953 -0.16282,-0.184912 0.44417,0.06833 1.03734,0.303327 0.76208,0.30226 -0.0965,-3.96e-4 -0.36617,-0.05309 -0.59929,-0.11684 z M 77.864783,72.374085 c 0,-0.04191 0.167666,-0.119888 0.372694,-0.172974 0.204877,-0.05309 0.510789,-0.13335 0.679577,-0.178308 0.168834,-0.04496 0.358562,-0.08194 0.421712,-0.08217 0.195148,-8.26e-4 0.03406,0.149073 -0.222606,0.207061 -0.133629,0.03048 -0.469867,0.110744 -0.747192,0.178816 -0.277266,0.06807 -0.504205,0.08941 -0.504205,0.04724 z m 61.098467,-0.104648 c -0.422,-0.10033 -0.76731,-0.218186 -0.76731,-0.262697 0,-0.08765 0.28854,-0.04153 1.07419,0.170739 0.27724,0.07493 0.50422,0.170434 0.50422,0.212598 0,0.04166 -0.0101,0.07315 -0.0221,0.06883 -0.012,-0.0041 -0.36718,-0.08915 -0.78923,-0.189484 z M 77.603189,71.769205 c 0.172263,-0.100889 1.513787,-0.443693 1.723101,-0.440221 0.292405,0.0048 -0.0555,0.141072 -0.863196,0.33795 -0.82534,0.201117 -1.080603,0.23147 -0.859905,0.102057 z m 61.391421,-0.1381 c -0.83832,-0.216637 -1.05306,-0.304734 -0.74226,-0.304734 0.22225,0 1.61193,0.347149 1.78511,0.445838 0.24435,0.13904 -0.18085,0.08194 -1.04285,-0.141104 z M 82.863154,61.431655 v -3.776803 l 0.284993,-0.08115 c 0.15681,-0.04472 4.64542,-1.325712 9.974822,-2.846856 5.329395,-1.521138 11.029491,-3.146029 12.666881,-3.610863 l 2.97706,-0.845147 0.70594,0.187198 c 0.38829,0.103022 1.65301,0.458635 2.81052,0.790349 1.56235,0.447726 17.93159,5.107878 22.03227,6.272359 l 0.46035,0.130734 v 3.778477 3.778476 l -0.19736,-0.05283 c -0.10846,-0.02913 -0.24638,-0.05342 -0.30691,-0.05403 -0.0856,-9.4e-4 -0.10972,-0.760582 -0.10972,-3.502601 v -3.501469 l -0.46038,-0.133782 c -0.25298,-0.07366 -1.05209,-0.296006 -1.77554,-0.494322 -0.72351,-0.198307 -3.18982,-0.891763 -5.48074,-1.541022 -2.29091,-0.64926 -5.7832,-1.638571 -7.76062,-2.19846 -1.97742,-0.559897 -5.00968,-1.42265 -6.73835,-1.917203 l -3.14303,-0.899216 -2.68839,0.772275 c -1.47866,0.424742 -4.74036,1.351722 -7.248319,2.059948 -2.507945,0.708226 -5.368854,1.516647 -6.357572,1.796514 -0.988695,0.279873 -3.356351,0.948271 -5.261435,1.485359 -1.905081,0.537088 -3.532838,0.997387 -3.617241,1.022901 -0.142773,0.04308 -0.153365,0.289258 -0.153365,3.548097 0,2.742276 -0.02408,3.501979 -0.109576,3.502915 -0.05979,6.58e-4 -0.198298,0.02511 -0.306913,0.05403 l -0.197434,0.05283 z M 132.95766,64.8534 c -0.082,-0.05182 -0.1143,-0.780611 -0.13132,-2.957951 l -0.0235,-2.889105 -0.83307,-0.233385 c -0.45798,-0.128295 -1.91803,-0.537435 -3.24436,-0.909053 -1.32634,-0.371619 -3.35857,-0.943819 -4.51609,-1.271585 -1.15751,-0.327767 -3.24894,-0.919354 -4.6476,-1.314628 -1.39867,-0.395275 -3.96362,-1.12293 -5.69989,-1.616978 -1.73628,-0.494068 -3.59141,-1.010133 -4.12251,-1.146829 l -0.96566,-0.248564 -1.35816,0.37352 c -0.74701,0.205409 -1.82624,0.511693 -2.39837,0.680542 -0.57208,0.168783 -1.53891,0.442544 -2.14838,0.60818 -0.6095,0.165532 -2.35123,0.653872 -3.87047,1.084966 -2.766378,0.784987 -4.975543,1.407836 -9.075979,2.558895 -1.205751,0.33847 -2.843389,0.799674 -3.639169,1.024885 l -1.44689,0.409481 -0.02326,2.915716 c -0.02266,2.842905 -0.02713,2.915714 -0.197434,2.915714 -0.170231,0 -0.17427,-0.06535 -0.17427,-3.05056 v -3.050532 l 1.293414,-0.378295 c 0.711401,-0.208051 1.905079,-0.549351 2.652649,-0.758393 0.747586,-0.209042 2.760055,-0.77932 4.47222,-1.267252 1.712189,-0.487934 4.790108,-1.362044 6.839877,-1.942442 2.049782,-0.580415 4.338492,-1.228524 5.086052,-1.440274 0.7476,-0.211734 1.96083,-0.550707 2.69618,-0.753234 l 1.33696,-0.368242 1.513,0.418061 c 1.47396,0.407297 8.75222,2.469571 18.19613,5.155859 l 4.66953,1.328229 v 3.097402 c 0,1.703568 -0.03,3.096796 -0.066,3.096058 -0.0361,-7.35e-4 -0.1143,-0.03239 -0.17374,-0.07023 z M 85.888485,64.58904 c 0.04801,-0.04694 0.464243,-0.186766 0.924476,-0.310911 1.107298,-0.298625 3.147762,-1.000135 4.296914,-1.477264 0.920064,-0.382021 1.622831,-0.82659 3.980362,-2.517986 0.581914,-0.417515 1.492123,-1.070597 2.022679,-1.451325 0.530555,-0.380721 1.272057,-0.917329 1.647901,-1.192444 l 0.683311,-0.500217 1.377442,0.54915 c 0.75763,0.302042 1.42999,0.565341 1.49426,0.585112 0.0643,0.01976 -0.20524,0.25826 -0.59784,0.529946 l -0.71473,0.493989 -0.6298,-0.3564 c -0.34638,-0.196088 -0.699894,-0.399666 -0.785594,-0.452544 -0.122428,-0.07549 -0.234696,-0.05121 -0.526135,0.114122 -0.449733,0.255321 -6.000128,3.951379 -6.859496,4.567802 -0.337592,0.242163 -0.732206,0.495305 -0.87691,0.562505 -0.14478,0.06721 -1.131214,0.245085 -2.192249,0.395275 -1.747733,0.247422 -2.473975,0.36399 -3.113026,0.499819 -0.142799,0.03035 -0.188798,0.01692 -0.131623,-0.03863 z M 131.04917,64.5279 c -0.048,-0.01781 -1.06784,-0.156033 -2.26583,-0.307005 l -2.1781,-0.274617 -1.67556,-1.505656 c -0.92157,-0.828109 -2.05255,-1.849918 -2.51333,-2.270677 l -0.8378,-0.76501 -0.96568,0.962013 -0.96568,0.96201 -1.00737,-0.669598 c -0.55407,-0.368279 -1.02384,-0.683821 -1.04394,-0.701205 -0.0907,-0.07851 -0.21336,-0.04069 3.08277,-0.949868 l 1.02933,-0.283937 1.17404,1.105304 c 0.64575,0.607921 1.70175,1.592976 2.34676,2.189035 l 1.17267,1.083732 1.35923,0.391597 c 0.7476,0.215341 1.95115,0.5431 2.67456,0.728281 0.7607,0.194666 1.18593,0.336975 1.00846,0.337358 -0.16891,3.95e-4 -0.34638,-0.01389 -0.39459,-0.03157 z M 95.149287,63.57477 c 0.01894,-0.01673 1.49446,-1.009078 3.27896,-2.205172 2.914983,-1.953808 4.208783,-2.862881 9.013773,-6.333505 l 1.38468,-1.000158 0.36906,0.297634 c 0.20269,0.163703 1.05103,0.788648 1.8845,1.388776 4.02247,2.896315 4.97655,3.558814 9.13902,6.346009 1.589,1.063981 2.18265,1.504927 2.05133,1.523688 -0.10186,0.01452 -0.74349,-0.03216 -1.42642,-0.10381 l -1.2416,-0.130099 -0.85357,-0.591322 c -0.46936,-0.325271 -1.5243,-1.045438 -2.34422,-1.600397 -2.65001,-1.7937 -6.33777,-4.406711 -7.47531,-5.29673 -0.0785,-0.06129 -0.74823,0.372629 -2.36766,1.533807 -1.24209,0.890618 -3.02784,2.14532 -3.96833,2.788216 -0.94048,0.642882 -2.34134,1.603299 -3.113017,2.134215 l -1.403045,0.965309 -0.876885,0.104216 c -1.124229,0.133579 -2.095347,0.218491 -2.051304,0.179502 z m -6.893158,-0.140614 c 0.02995,-0.04816 0.140817,-0.09088 0.246177,-0.09472 0.105333,-0.0038 0.142773,-0.02692 0.0826,-0.05121 -0.05987,-0.02429 -0.109778,-0.08458 -0.109778,-0.13396 0,-0.04938 0.06126,-0.06619 0.135839,-0.03764 0.07818,0.02995 0.113106,0.01522 0.0826,-0.03439 -0.02995,-0.04778 -0.120041,-0.08801 -0.201829,-0.08943 -0.130022,-0.0024 -0.132232,-0.01585 -0.01705,-0.109678 0.07236,-0.0587 0.135001,-0.146329 0.139166,-0.194462 0.01894,-0.221742 0.153315,-0.665386 0.212903,-0.702236 0.06652,-0.0411 0.257261,0.345188 0.293827,0.594924 0.01074,0.07346 0.07209,0.196697 0.135839,0.273839 0.101473,0.121819 0.08898,0.141656 -0.09149,0.150572 -0.14859,0.0073 -0.16411,0.02165 -0.05461,0.05016 0.258094,0.06736 0.173253,0.151942 -0.31512,0.312244 -0.53942,0.177064 -0.614353,0.186157 -0.539809,0.06574 z M 127.64786,63.31676 c -0.50871,-0.162103 -0.57246,-0.204063 -0.4384,-0.288973 0.0858,-0.05463 0.12649,-0.130937 0.0897,-0.169545 -0.0371,-0.03868 -0.11405,-0.02347 -0.17145,0.03358 -0.0571,0.05705 -0.15494,0.10381 -0.21768,0.10381 -0.2098,0 -0.11709,-0.33892 0.17145,-0.624043 0.15672,-0.155219 0.2159,-0.231292 0.13132,-0.169164 -0.12903,0.09512 -0.15367,0.09126 -0.15367,-0.02408 0,-0.07549 0.0381,-0.160452 0.0838,-0.188976 0.0462,-0.02853 0.0617,-0.109678 0.035,-0.180493 -0.0272,-0.07084 -0.003,-0.128727 0.0528,-0.128727 0.0566,0 0.0772,-0.04044 0.0465,-0.08969 -0.0554,-0.08943 0.13589,-0.616194 0.21997,-0.606908 0.0246,0.0027 0.18847,0.2967 0.36421,0.653369 0.20523,0.415529 0.28384,0.660654 0.21895,0.682384 -0.0729,0.0245 -0.0693,0.07165 0.0126,0.171221 0.0922,0.112116 0.0922,0.145314 0,0.181534 -0.063,0.02429 0.0351,0.02308 0.21564,-0.0029 0.19635,-0.02817 0.32883,-0.01118 0.32883,0.04232 0,0.118796 -0.56985,0.181534 -0.76604,0.0842 -0.0851,-0.04209 -0.0566,0.0054 0.0645,0.105614 0.1209,0.100355 0.30805,0.206298 0.41654,0.235508 0.10845,0.02913 0.19735,0.09088 0.19735,0.137186 0,0.04636 -0.0886,0.05768 -0.19735,0.02529 -0.19406,-0.05791 -0.19457,-0.05664 -0.0221,0.07889 0.24231,0.190424 0.0549,0.173406 -0.68291,-0.06152 z m -0.55517,-0.632648 c 0.03,-0.07813 0.0152,-0.113335 -0.035,-0.08255 -0.048,0.02954 -0.0869,0.09065 -0.0869,0.136195 0,0.126086 0.0632,0.09832 0.12142,-0.05359 z m 0.84346,-0.477756 c 0,-0.04816 -0.0417,-0.08763 -0.0932,-0.08763 -0.0513,0 -0.0688,0.03945 -0.0383,0.08763 0.03,0.04816 0.0719,0.08763 0.0932,0.08763 0.0215,0 0.0383,-0.03945 0.0383,-0.08763 z m -28.021167,0.971073 c 0.03353,-0.05423 0.541477,-0.458354 1.128647,-0.897944 0.58722,-0.439572 1.20577,-0.925604 1.37455,-1.080071 0.36347,-0.332524 2.9675,-2.219041 5.32438,-3.857204 l 1.07137,-0.744675 0.9017,0.641693 c 0.49596,0.352941 1.99149,1.415525 3.32354,2.361347 1.33202,0.945802 2.71318,1.94946 3.06917,2.230341 0.35603,0.280871 0.89281,0.687425 1.19281,0.903427 0.30005,0.216002 0.54663,0.425567 0.54813,0.465656 0.009,0.267855 -6.00359,-3.860576 -8.44184,-5.796058 l -0.59611,-0.473164 -0.54392,0.472885 c -0.87854,0.763803 -5.19428,3.860894 -6.90149,4.952671 -1.2622,0.807161 -1.53919,0.963932 -1.450899,0.8211 z m 23.807097,-0.731211 c -0.4609,-0.397177 -1.18581,-1.027983 -1.61094,-1.401767 -0.4251,-0.373784 -0.80762,-0.679593 -0.85003,-0.679593 -0.19685,0 -0.0472,-0.16797 0.19736,-0.221742 0.26282,-0.05768 0.33564,5.91e-4 1.73193,1.39238 0.80152,0.79897 1.556,1.49131 1.67655,1.538524 l 0.21895,0.08583 -0.26282,0.0043 c -0.20588,0.0033 -0.44404,-0.151786 -1.10098,-0.717892 z m 4.47715,0.549354 c -0.11252,-0.07264 -0.10896,-0.08517 0.0221,-0.08644 0.0843,-7.36e-4 0.15367,0.03807 0.15367,0.08644 0,0.106857 -0.0101,0.106857 -0.17526,0 z M 90.22917,62.562293 c 0,-0.189205 -0.126492,-0.242849 -0.218948,-0.09286 -0.02997,0.04816 -0.199898,0.0842 -0.377855,0.07973 l -0.323629,-0.0079 0.280688,-0.08115 c 0.366016,-0.105842 0.441421,-0.232842 0.10894,-0.184176 -0.154406,0.02267 -0.258371,-0.0015 -0.258371,-0.05966 0,-0.0538 0.09398,-0.09774 0.208483,-0.09774 0.114503,0 0.258371,-0.0601 0.319334,-0.133579 0.09271,-0.111684 0.08738,-0.124435 -0.03302,-0.07831 -0.0795,0.03035 -0.144272,0.03035 -0.144272,-1.32e-4 0,-0.03053 0.09906,-0.09286 0.218948,-0.138836 0.120904,-0.0459 0.218948,-0.124638 0.218948,-0.17526 0,-0.05062 -0.101854,-0.02511 -0.226822,0.05664 -0.193294,0.126466 -0.238506,0.130124 -0.305613,0.02388 -0.109779,-0.173228 -0.100635,-0.255877 0.02769,-0.257485 0.08585,-0.0011 0.08534,-0.01661 -0.002,-0.07226 -0.0854,-0.05403 -0.06934,-0.109093 0.0668,-0.232613 0.09957,-0.09004 0.158242,-0.225273 0.133096,-0.305326 -0.02534,-0.07889 0.03581,-0.230708 0.13462,-0.337177 0.09931,-0.106426 0.164084,-0.222682 0.144526,-0.258206 -0.01957,-0.03561 0.01389,-0.182728 0.07442,-0.32718 l 0.11049,-0.26253 0.156718,0.328313 c 0.08585,0.180493 0.198882,0.32892 0.249936,0.329649 0.05131,7.37e-4 0.03607,0.03785 -0.03505,0.08235 -0.11049,0.0698 -0.107188,0.10381 0.02206,0.24671 0.189738,0.209575 0.192024,0.318458 0.006,0.24699 -0.120396,-0.0461 -0.125984,-0.03338 -0.03302,0.07831 0.06121,0.07346 0.182626,0.133578 0.270282,0.133578 0.08763,0 0.18796,0.04575 0.22225,0.101372 0.04496,0.07264 -0.01704,0.08539 -0.21844,0.04514 -0.175514,-0.03498 -0.261138,-0.02388 -0.227838,0.03015 0.02946,0.04758 0.110236,0.08644 0.179578,0.08644 0.06934,0 0.126238,0.03945 0.126238,0.08763 0,0.114122 -0.142494,0.111506 -0.363169,-0.0066 -0.160782,-0.08601 -0.16764,-0.0779 -0.07696,0.09088 0.05461,0.101778 0.2159,0.208585 0.3588,0.237084 0.207518,0.0415 0.239776,0.07587 0.16002,0.172212 -0.07645,0.0919 -0.07188,0.122834 0.02021,0.130733 0.06629,0.0057 0.002,0.04044 -0.142748,0.07732 l -0.262814,0.06701 0.23622,0.01035 c 0.323342,0.01421 0.405892,0.182322 0.09804,0.199517 -0.345999,0.01938 -0.401752,0.01383 -0.575158,-0.05728 -0.116586,-0.04796 -0.152908,-0.01995 -0.152908,0.116612 0,0.09873 -0.03886,0.204013 -0.08763,0.233781 -0.04801,0.02974 -0.08763,-0.02713 -0.08763,-0.126263 z M 90.012,61.434086 c -0.02718,-0.02713 -0.09754,-5.5e-5 -0.156972,0.05987 -0.08585,0.08664 -0.07569,0.09675 0.04928,0.04895 0.08611,-0.03299 0.135128,-0.08194 0.108204,-0.108865 z m 0.219456,-0.58691 c 0.118872,-0.162306 0.117094,-0.166294 -0.02466,-0.05507 -0.08433,0.06619 -0.152908,0.161518 -0.152908,0.211912 0,0.05037 0.01136,0.07508 0.02465,0.05507 0.01389,-0.02008 0.08255,-0.115545 0.15291,-0.211912 z m 35.862584,1.612057 c -0.2728,-0.108052 -0.87691,-0.687164 -0.87691,-0.840634 0,-0.06251 -0.0442,-0.10381 -0.0991,-0.0919 -0.0546,0.01206 -0.11659,-0.0273 -0.13894,-0.08763 -0.022,-0.06033 0.0221,-0.109677 0.0991,-0.109677 0.0765,0 0.13894,-0.04092 0.13894,-0.09088 0,-0.06032 -0.0612,-0.05791 -0.18288,0.0071 -0.26723,0.143078 -0.33383,0.0088 -0.0919,-0.186995 0.23241,-0.188214 0.18542,-0.218745 -0.10312,-0.06736 -0.19025,0.09977 -0.19025,0.09916 -0.0247,-0.08763 0.0917,-0.103403 0.21539,-0.188214 0.27417,-0.188214 0.0584,0 0.15672,-0.05908 0.21641,-0.131546 0.1397,-0.168555 -0.003,-0.170383 -0.22428,-0.0028 -0.29195,0.220777 -0.43455,0.104216 -0.18187,-0.148564 0.0663,-0.06599 0.14783,-0.206909 0.18136,-0.31318 0.0335,-0.106248 0.10058,-0.193218 0.14833,-0.193218 0.048,0 0.0663,-0.03358 0.0404,-0.07488 -0.0579,-0.0939 0.13767,-0.626694 0.23063,-0.626694 0.0381,0 0.0688,0.06901 0.0688,0.153416 1.9e-4,0.08435 0.0798,0.284079 0.17754,0.443723 0.0973,0.159664 0.1524,0.330012 0.12243,0.378602 -0.0302,0.04856 0.0277,0.10988 0.12903,0.136195 0.10059,0.02629 0.1585,0.08722 0.12929,0.135407 -0.03,0.04816 2.6e-4,0.122682 0.0668,0.165329 0.10135,0.06533 0.0996,0.0919 -0.0107,0.164338 -0.0724,0.04757 -0.2225,0.08702 -0.33398,0.08763 -0.11125,7.36e-4 -0.17958,0.03825 -0.15164,0.08319 0.0277,0.04513 0.18822,0.05966 0.35591,0.03238 0.19786,-0.03195 0.30533,-0.01465 0.30533,0.04961 0,0.05464 -0.0887,0.101574 -0.19736,0.1048 -0.19329,0.0054 -0.19228,0.0074 0.0189,0.0919 0.11862,0.04737 0.23292,0.103201 0.25375,0.123851 0.0795,0.0791 -0.19304,0.305084 -0.37079,0.307853 -0.18364,0.0029 -0.18364,0.0057 0.0202,0.175463 0.11405,0.0949 0.28159,0.172415 0.3727,0.172415 0.29202,0 0.17678,0.17526 -0.11913,0.181331 -0.26891,0.0056 -0.27389,0.01136 -0.0876,0.101194 0.10846,0.05242 0.19736,0.128498 0.19736,0.169367 0,0.09207 -0.0704,0.08722 -0.35083,-0.02367 z m 0.15341,-1.014827 c -0.0843,-0.02206 -0.2225,-0.02206 -0.30688,0 -0.0843,0.02206 -0.0151,0.04006 0.15342,0.04006 0.16891,0 0.23774,-0.01806 0.15291,-0.04006 z M 107.142,62.231963 c -0.11278,-0.02713 -0.14503,-0.160452 -0.15494,-0.643735 l -0.0126,-0.609542 h 0.79459 0.79456 l -0.0259,0.63576 -0.0259,0.635762 -0.61382,0.008 c -0.33759,0.0044 -0.67793,-0.0074 -0.75631,-0.02609 z m 1.93606,0.02913 c -0.022,-0.02165 -0.0267,-0.320645 -0.0107,-0.664355 l 0.0295,-0.624937 0.70417,0.02529 0.70416,0.02529 v 0.613829 0.613829 l -0.69365,0.02511 c -0.38145,0.01383 -0.71148,0.0074 -0.73347,-0.01427 z M 91.68903,61.795506 c -0.106172,-0.10607 -0.05766,-0.203047 0.101854,-0.203047 0.08738,0 0.227838,-0.05062 0.312395,-0.112522 0.132842,-0.09698 0.104902,-0.107849 -0.202438,-0.07851 -0.22225,0.02125 -0.356286,-0.0025 -0.356286,-0.06294 0,-0.05319 0.09093,-0.09698 0.202438,-0.09698 0.111252,0 0.278968,-0.06251 0.372694,-0.138582 0.121412,-0.09873 0.130048,-0.126467 0.03124,-0.09611 -0.0795,0.0245 -0.138938,-0.0083 -0.138938,-0.07668 0,-0.06556 0.03302,-0.09893 0.0729,-0.07427 0.04039,0.0249 0.15367,-0.01149 0.252222,-0.08075 0.299847,-0.210032 -0.02397,-0.249326 -0.398754,-0.04839 -0.178816,0.09591 -0.3429,0.156845 -0.36444,0.135408 -0.04801,-0.04796 0.293269,-0.311943 0.67498,-0.522161 0.155956,-0.086 0.258648,-0.181127 0.228092,-0.211404 -0.03023,-0.03035 -0.127762,0.01035 -0.2159,0.09042 -0.08839,0.08014 -0.236474,0.145313 -0.329387,0.145136 -0.136144,-4.59e-4 -0.11811,-0.03561 0.09449,-0.183973 0.222504,-0.15499 0.232664,-0.176453 0.06604,-0.139242 -0.108458,0.02429 -0.197358,0.01446 -0.197358,-0.02186 0,-0.03642 0.08865,-0.108864 0.197358,-0.161315 0.156972,-0.07567 0.16637,-0.09634 0.04343,-0.101194 -0.20574,-0.008 -0.197612,-0.18133 0.0082,-0.18133 0.0889,0 0.233172,-0.07889 0.320497,-0.175463 0.125984,-0.139243 0.132842,-0.175464 0.03073,-0.175464 -0.0701,0 -0.17399,0.04676 -0.23114,0.10381 -0.05715,0.05705 -0.133858,0.07305 -0.17145,0.03523 -0.03708,-0.03764 0.07087,-0.187401 0.239776,-0.332623 0.16891,-0.145314 0.220726,-0.220371 0.11557,-0.166751 -0.318491,0.161722 -0.350012,0.109093 -0.07188,-0.119202 0.14478,-0.118568 0.218694,-0.217043 0.164084,-0.218745 -0.0668,-0.0021 -0.05461,-0.100965 0.03632,-0.30241 l 0.135636,-0.299255 0.1778,0.365021 c 0.09754,0.200761 0.218948,0.397619 0.270002,0.437471 0.06325,0.04961 0.05766,0.08664 -0.01768,0.117171 -0.15494,0.06294 -0.04496,0.205028 0.159766,0.205028 0.09373,0 0.169926,0.03945 0.169926,0.08763 0,0.04816 -0.07645,0.08763 -0.169926,0.08763 -0.09373,0 -0.195326,0.04107 -0.226822,0.09126 -0.03607,0.0587 0.02084,0.07183 0.160782,0.0368 0.246126,-0.06175 0.415087,0.1111 0.225298,0.231293 -0.0668,0.04209 -0.239268,0.07831 -0.383921,0.08057 -0.22479,0.0034 -0.240284,0.01724 -0.106172,0.0953 0.08585,0.05017 0.273888,0.06556 0.416535,0.03419 0.276123,-0.06073 0.375945,0.08905 0.106172,0.159461 -0.09093,0.02388 -0.04623,0.04694 0.109728,0.05728 0.14478,0.0094 0.2159,0.03622 0.158242,0.05966 -0.05766,0.02347 -0.08128,0.104013 -0.05207,0.178893 0.04343,0.112903 -0.0101,0.130302 -0.312649,0.101574 -0.53909,-0.05141 -0.389407,0.162713 0.29431,0.42128 0.146304,0.05545 0.128016,0.07165 -0.111252,0.09814 -0.164846,0.01837 -0.263373,0.06957 -0.232156,0.120625 0.05715,0.09225 -0.246888,0.426054 -0.387833,0.426054 -0.0442,0 -0.131064,0.06073 -0.192278,0.134747 -0.06121,0.07404 -0.175006,0.124435 -0.251714,0.111684 -0.07696,-0.01263 -0.179324,1.98e-4 -0.227838,0.02852 -0.161798,0.09512 -0.543407,0.160681 -0.600786,0.103404 z m 1.585519,-1.746735 c -0.02946,-0.02913 -0.104902,-0.03216 -0.168148,-0.0069 -0.0701,0.02794 -0.04928,0.04877 0.05283,0.05304 0.0922,0.0038 0.144526,-0.01692 0.114808,-0.0459 z m 2.96577,1.113135 c 0.04623,-0.04394 0.458191,-0.306436 0.916381,-0.583433 0.458165,-0.276974 1.168476,-0.726765 1.578458,-0.999528 l 0.745363,-0.495912 0.297104,0.173812 0.297125,0.173812 -0.34729,0.102591 c -0.191008,0.05644 -1.040003,0.463936 -1.886433,0.905614 -1.444574,0.75374 -1.799996,0.914336 -1.600606,0.723222 z m 10.820341,-0.683923 c -0.003,-0.08644 -0.0215,-0.314858 -0.0422,-0.507769 -0.0673,-0.638518 -0.0323,-0.667837 0.77767,-0.639183 l 0.71641,0.02529 v 0.613829 0.613829 l -0.72347,0.0255 c -0.64471,0.02266 -0.724,0.0084 -0.72853,-0.131546 z m 2.02189,-0.507726 v -0.664779 l 0.72347,0.0255 0.72347,0.0255 v 0.613829 0.613829 l -0.72347,0.0255 -0.72347,0.0255 z m 5.52451,-2.030305 c -0.7275,-0.554658 -0.70152,-0.514952 -0.70152,-1.071126 0,-0.30828 0.0442,-0.551236 0.10973,-0.60306 0.10262,-0.08136 0.90426,-0.09004 0.98361,-0.01061 0.0462,0.0459 0.08,1.914091 0.0361,1.955188 -0.0183,0.01679 -0.21056,-0.1048 -0.42753,-0.270347 z"
       id="path3" />
  </g>
</svg>
