<?xml version="1.0" encoding="UTF-8" standalone="no"?>
<!-- Created with Inkscape (http://www.inkscape.org/) -->

<svg
   width="210mm"
   height="297mm"
   viewBox="0 0 793.70081 1122.5197"
   version="1.1"
   id="svg1"
   inkscape:version="1.4.3 (0d15f75, 2025-12-25)"
   sodipodi:docname="SD-Logo2.svg"
   xmlns:inkscape="http://www.inkscape.org/namespaces/inkscape"
   xmlns:sodipodi="http://sodipodi.sourceforge.net/DTD/sodipodi-0.dtd"
   xmlns="http://www.w3.org/2000/svg"
   xmlns:svg="http://www.w3.org/2000/svg">
  <sodipodi:namedview
     id="namedview1"
     pagecolor="#ffffff"
     bordercolor="#000000"
     borderopacity="0.25"
     inkscape:showpageshadow="2"
     inkscape:pageopacity="0.0"
     inkscape:pagecheckerboard="0"
     inkscape:deskcolor="#d1d1d1"
     inkscape:document-units="mm"
     inkscape:zoom="0.62181538"
     inkscape:cx="394.00763"
     inkscape:cy="292.69138"
     inkscape:window-width="1440"
     inkscape:window-height="847"
     inkscape:window-x="0"
     inkscape:window-y="25"
     inkscape:window-maximized="1"
     inkscape:current-layer="layer1" />
  <defs
     id="defs1" />
  <g
     inkscape:label="Layer 1"
     inkscape:groupmode="layer"
     id="layer1">
    <path
       d="m 455.76986,165.52339 c -0.92666,-0.80375 -2.20509,-0.87447 -2.83109,-0.15647 -0.67521,0.77435 -1.00452,0.14967 -0.4958,-0.94042 0.38011,-0.81453 0.27553,-1.04716 -0.81101,-1.80495 l -1.24736,-0.86994 1.52576,-0.14362 c 1.24657,-0.11717 1.62724,-0.38744 2.08037,-1.47655 l 0.55464,-1.33308 0.58746,1.42251 c 0.47444,1.14893 0.85817,1.45058 1.99532,1.56858 l 1.40788,0.14589 -1.11587,0.64304 c -0.97187,0.56005 -1.08885,0.83418 -0.90637,2.12387 0.24151,1.70691 0.25739,1.68949 -0.74393,0.82099 z m -19.96255,-2.95733 c -5.38825,-0.1663 -12.69181,-0.33033 -16.23013,-0.36472 -3.53828,-0.034 -6.35977,-0.14249 -6.26997,-0.24 0.29329,-0.31824 34.02471,-0.79998 34.45928,-0.49195 0.65673,0.46545 -0.34432,1.58321 -1.32858,1.48339 -0.45853,-0.0465 -5.24232,-0.22034 -10.6306,-0.38672 z m 25.50021,-0.28006 c -0.31635,-0.94481 0.35149,-1.05955 5.066,-0.87077 2.37086,0.0949 10.48263,0.22602 18.02623,0.29141 13.32416,0.11565 13.50312,0.1285 6.26997,0.4569 -4.09508,0.18596 -12.32935,0.43136 -18.29836,0.54554 -9.07487,0.17348 -10.88734,0.10431 -11.06384,-0.42323 z m -55.36695,-7.07754 c -1.36751,-0.70889 -1.92744,-2.21039 -1.51944,-4.07456 0.36283,-1.658 1.84335,-2.54763 4.2816,-2.57276 2.34255,-0.0227 3.0043,0.25587 3.0043,1.27086 0,0.58987 -0.10771,0.58659 -0.87091,-0.0264 -1.28652,-1.03337 -2.93583,-0.86888 -4.04531,0.4035 -0.52902,0.60669 -0.96189,1.32782 -0.96189,1.60248 0,0.6926 0.8117,2.39414 1.33229,2.79277 0.7646,0.58549 3.09252,0.36472 3.7903,-0.35943 0.38774,-0.40241 0.77639,-0.52033 0.90826,-0.27553 0.76221,1.41434 -3.75644,2.36039 -5.9192,1.23927 z m 9.78021,-0.034 c -1.52251,-0.75885 -2.29629,-2.63153 -1.70366,-4.12316 0.66905,-1.68405 2.30343,-2.59314 4.59364,-2.55519 2.37789,0.0393 3.93989,0.9868 4.29388,2.60428 0.78323,3.57884 -3.40823,5.95586 -7.18386,4.07407 z m 4.67463,-0.97115 c 1.60766,-1.66851 0.30312,-5.09851 -1.93931,-5.09851 -2.53705,0 -3.76687,2.9706 -2.04654,4.94347 0.95826,1.09894 2.99985,1.17835 3.98585,0.15497 z m 4.51302,1.1537 c 0.18067,-0.20712 0.23622,-1.79966 0.12359,-3.53907 -0.18784,-2.90015 -0.14248,-3.16252 0.5472,-3.16252 0.73958,0 4.65249,3.10295 5.63664,4.46989 0.41923,0.58232 0.48431,0.26911 0.39186,-1.88643 -0.0998,-2.32736 -0.034,-2.58475 0.67291,-2.58516 0.72911,-3.8e-4 0.77484,0.2502 0.65594,3.59588 -0.0703,1.97794 -0.28158,3.59629 -0.4695,3.59629 -0.18784,0 -1.36497,-0.9606 -2.61566,-2.13467 -4.15426,-3.8998 -3.74135,-3.81816 -3.58571,-0.70897 0.13039,2.60618 0.0945,2.73317 -0.77431,2.73226 -0.50109,-5.3e-4 -0.76335,-0.17046 -0.58277,-0.37757 z m 12.90826,-0.0729 c 0.18785,-0.30879 0.34205,-1.77513 0.34205,-3.25818 0,-2.58826 -0.0393,-2.69469 -0.97969,-2.6527 -0.53885,0.0227 -1.29029,0.19804 -1.66991,0.3871 -0.53318,0.26532 -0.63511,0.17877 -0.44791,-0.38079 0.1988,-0.59392 0.89605,-0.72416 3.87745,-0.72416 3.22969,0 3.6567,0.0945 3.82806,0.84582 0.1818,0.79654 0.13115,0.80516 -0.86797,0.14778 -1.75941,-1.15801 -2.36848,-0.51568 -2.36848,2.49785 0,1.44136 0.21166,2.86334 0.47025,3.15995 0.36586,0.41946 0.1372,0.5393 -1.02769,0.5393 -1.11942,0 -1.4115,-0.14211 -1.15601,-0.56178 z m 7.02834,0.12926 c 0.21127,-0.24265 0.28724,-1.82317 0.17234,-3.59524 l -0.20485,-3.16256 h 2.61702 c 3.03617,0 3.727,0.23055 4.28671,1.42983 0.49424,1.0591 -0.15043,2.16541 -1.26169,2.16541 -1.08907,0 -0.87632,0.50782 0.89435,2.13468 1.54912,1.42337 1.5631,1.46059 0.54815,1.46059 -0.66002,0 -1.55875,-0.57611 -2.45371,-1.57292 -0.77677,-0.86514 -1.75752,-1.57293 -2.1795,-1.57293 -0.66463,0 -0.73285,0.21052 -0.50994,1.57293 0.25097,1.53509 0.22678,1.57292 -1.01446,1.57292 -0.81509,0 -1.13628,-0.15533 -0.89446,-0.43271 z m 5.06978,-4.69799 c 0,-0.54271 -0.4035,-1.01564 -1.09058,-1.27828 -1.51563,-0.57936 -2.24036,-0.13644 -2.24036,1.36925 0,1.24649 0.0439,1.27347 1.66545,1.02527 1.30277,-0.19956 1.66549,-0.44251 1.66549,-1.11624 z m 5.50704,1.89705 c 2.6889,-5.00152 2.5375,-4.95824 4.47556,-1.27978 0.92213,1.75026 1.83069,3.29148 2.01903,3.42497 0.18822,0.13342 0.34242,0.41518 0.34242,0.626 0,0.63734 -1.95885,0.18293 -2.46591,-0.57207 -0.27364,-0.40758 -1.21316,-0.76017 -2.22913,-0.83671 -1.42383,-0.10734 -1.83149,0.034 -2.15532,0.75715 -0.21959,0.48915 -0.70148,0.94712 -1.07077,1.01764 -0.50468,0.0964 -0.23547,-0.6827 1.08412,-3.1372 z m 3.02857,-0.87284 -0.61342,-1.41007 -0.71939,1.07301 c -1.008,1.50338 -0.92368,1.74709 0.60465,1.74709 h 1.34154 z m 7.12577,3.67884 c -2.13215,-0.9911 -2.55919,-3.98853 -0.81362,-5.71045 0.89726,-0.88509 1.49945,-1.05241 3.78811,-1.05241 2.42388,0 2.72126,0.0945 2.72126,0.86438 0,0.81373 -0.0703,0.82424 -1.19732,0.17915 -1.48078,-0.84714 -3.7234,-0.45785 -4.28413,0.7437 -1.08669,2.3286 0.14135,4.50425 2.54241,4.50425 0.65843,0 1.5891,-0.31484 2.06812,-0.69959 0.77359,-0.62139 0.87092,-0.62317 0.87092,-0.0151 0,0.37606 -0.34092,0.89314 -0.75799,1.14898 -0.89026,0.54644 -3.79559,0.56855 -4.93776,0.0378 z m 10.5942,-2.8303 v -3.25844 l -1.17562,0.15609 c -0.6466,0.0858 -1.39604,0.36321 -1.66548,0.61678 -0.36435,0.34281 -0.48983,0.21619 -0.48983,-0.49304 0,-0.91162 0.18217,-0.95384 4.11466,-0.95384 3.23316,0 4.11469,0.13267 4.11469,0.61894 0,0.47006 -0.43544,0.56262 -1.81084,0.38483 l -1.81081,-0.23395 0.15798,3.2104 c 0.14702,2.98746 0.1028,3.21041 -0.6384,3.21064 -0.7276,2.2e-4 -0.79653,-0.28195 -0.79653,-3.25818 z m 7.05374,-0.33713 c 0,-3.31571 0.062,-3.59528 0.79706,-3.59528 0.72752,0 0.805,0.3137 0.88804,3.59528 0.0877,3.46707 0.0593,3.59524 -0.79706,3.59524 -0.84881,0 -0.88804,-0.15874 -0.88804,-3.59524 z m 4.43781,3.0161 c 0.37644,-0.5201 0.28233,-4.52621 -0.14211,-6.04959 -0.0979,-0.35187 0.22639,-0.56179 0.86849,-0.56179 0.92969,0 3.29118,1.85269 5.34637,4.19448 1.0046,1.14467 1.1568,0.75168 0.73633,-1.90129 -0.34318,-2.16593 -0.31748,-2.29323 0.46477,-2.29425 0.78478,-9.8e-4 0.82152,0.18785 0.70042,3.59528 -0.0703,1.97794 -0.29065,3.5963 -0.48937,3.5963 -0.19881,0 -1.55214,-1.10831 -3.00722,-2.4629 -1.45508,-1.35458 -2.77784,-2.46686 -2.93949,-2.47173 -0.48484,-0.0151 -0.33109,3.8132 0.1765,4.39533 0.36586,0.41945 0.18104,0.5393 -0.83172,0.5393 -1.01798,0 -1.21058,-0.12624 -0.8829,-0.57914 z m 12.12873,-0.12132 c -3.13232,-1.94941 -2.02402,-6.09982 1.79093,-6.7067 2.34383,-0.37266 3.94975,0.25058 4.10815,1.59522 0.12586,1.06678 0.11452,1.07146 -0.45823,0.19465 -0.82133,-1.25745 -4.00044,-1.27499 -4.79652,-0.0265 -0.72907,1.14346 -0.70458,2.50466 0.0677,3.76933 0.52279,0.85591 0.91968,0.9998 2.4457,0.88645 1.36807,-0.10167 1.85416,-0.33147 1.95224,-0.92387 0.0813,-0.49073 -0.20183,-0.92958 -0.74926,-1.16187 -1.19792,-0.50819 -0.46994,-0.89038 1.22896,-0.6452 1.31323,0.18973 1.37884,0.27969 1.23484,1.69418 -0.10847,1.06597 -0.3936,1.56831 -0.99507,1.75336 -1.55274,0.47773 -4.75083,0.24264 -5.82954,-0.42891 z m -102.80346,-1.10026 c -0.8716,-0.99957 -3.31034,-1.21138 -14.96462,-1.29974 -3.6965,-0.0265 -5.97612,-0.21657 -5.97612,-0.49471 0,-0.288 3.59845,-0.44938 10.01152,-0.44938 h 10.01151 l 0.88332,-1.09304 c 0.86483,-1.07021 0.89336,-1.07456 1.36512,-0.20825 0.26495,0.48665 0.96125,1.10044 1.54719,1.36399 1.05222,0.47331 1.05468,0.48393 0.19805,0.86169 -0.4769,0.21052 -1.09244,0.7962 -1.36785,1.30194 -0.61928,1.13722 -0.73088,1.13835 -1.70827,0.0189 z m 114.92187,-0.0151 c -0.1115,-0.48896 -0.79192,-1.18246 -1.512,-1.54107 -1.10744,-0.5515 -1.17044,-0.65472 -0.40883,-0.66961 0.49523,-0.0113 1.32049,-0.53738 1.8339,-1.17268 l 0.93343,-1.15506 0.81128,0.93037 c 0.75344,0.86407 1.29312,0.93441 7.57111,0.98687 3.71792,0.0302 9.3168,0.18293 12.44201,0.33789 l 5.68218,0.28158 -4.31062,0.33486 c -2.37083,0.18407 -7.92567,0.36624 -12.34405,0.40471 -7.73473,0.0673 -8.0792,0.10848 -9.26457,1.11043 -1.19902,1.01356 -1.2364,1.01752 -1.43384,0.15156 z M 377.68441,140.10637 c -1.57777,-0.19389 -2.93874,-0.43325 -3.02446,-0.53151 -0.0858,-0.0983 -0.2691,-1.38172 -0.40785,-2.85211 l -0.25209,-2.67341 1.24479,1.68128 c 2.16068,2.91829 7.66019,3.93328 10.35209,1.91055 2.42188,-1.81984 1.3768,-3.48071 -2.83639,-4.50765 -7.4095,-1.80601 -8.67345,-2.62866 -8.67345,-5.64533 0,-1.93636 1.34132,-3.52581 3.81082,-4.51567 1.63953,-0.65714 6.73002,-0.78032 9.61089,-0.23244 l 1.86138,0.35377 v 2.44422 c 0,1.3443 -0.11376,2.44418 -0.25247,2.44418 -0.13871,0 -0.80009,-0.72514 -1.46952,-1.61144 -0.93823,-1.24214 -1.66182,-1.70634 -3.15761,-2.02567 -3.26207,-0.69642 -6.48484,0.4405 -6.48484,2.28771 0,1.21542 1.58344,2.01656 5.29028,2.67654 3.70338,0.65938 6.71796,2.02749 7.32265,3.32327 0.68028,1.45769 0.45215,3.44073 -0.5379,4.67644 -2.00436,2.50167 -6.51817,3.52018 -12.39647,2.79716 z m 98.87785,-0.61353 c -7.24309,-3.93354 -6.93177,-12.75787 0.58488,-16.57826 2.08135,-1.05785 7.49151,-1.29403 9.99938,-0.43649 2.22093,0.75942 4.56771,2.61377 5.69454,4.49968 1.34593,2.25259 1.35477,6.03348 0.0189,8.26854 -2.051,3.43272 -5.89697,5.28458 -11.0078,5.30034 -2.70289,0.008 -3.70039,-0.19049 -5.29032,-1.05381 z m 9.40478,-1.58075 c 2.66491,-1.73892 3.67752,-6.44908 2.19258,-10.19887 -2.71256,-6.84979 -11.79329,-4.45137 -11.79329,3.11486 0,6.42267 4.98134,10.09818 9.60071,7.08401 z m 27.60681,1.95114 c -0.62601,-0.86498 -13.16825,-12.33025 -13.48853,-12.33025 -0.12699,0 -0.18104,2.47733 -0.12057,5.50522 l 0.10999,5.50518 1.27358,0.43 c 2.25355,0.76086 1.36929,1.14293 -2.64517,1.14293 -3.8117,0 -5.12867,-0.50895 -2.73665,-1.05759 1.73764,-0.39855 2.07145,-1.84339 1.83209,-7.9305 -0.11187,-2.84247 -0.31597,-5.49362 -0.45384,-5.89146 -0.23396,-0.67536 -0.82504,-1.11379 -2.75626,-2.04472 -0.51886,-0.25021 0.47146,-0.42195 2.92977,-0.50839 l 3.71354,-0.13039 2.05682,1.70347 c 1.13125,0.93695 4.00101,3.47694 6.37723,5.6445 l 4.32042,3.94099 0.0435,-3.4916 c 0.0752,-6.0429 -0.14362,-6.86211 -1.83163,-6.86211 -0.49973,0 -1.01031,-0.1886 -1.13461,-0.41938 -0.13229,-0.24567 1.40129,-0.47841 3.70053,-0.56179 4.08019,-0.14778 5.02175,0.30917 2.70346,1.31282 l -1.22143,0.52872 0.28687,8.10852 0.28686,8.10849 h -1.36868 c -0.76312,0 -1.5936,-0.31068 -1.87706,-0.70251 z m 5.50677,0.22451 c 0,-0.19314 0.60163,-0.5788 1.33689,-0.85712 0.73531,-0.27818 1.44068,-0.81608 1.56753,-1.19513 0.33789,-1.01 0.26985,-12.88146 -0.0771,-13.50788 -0.16289,-0.29367 -0.82133,-0.79676 -1.46354,-1.11832 -1.14066,-0.5712 -1.1133,-0.58727 1.18359,-0.69668 1.29321,-0.0616 5.56974,-0.16517 9.50348,-0.2298 l 7.15218,-0.11792 -4.9e-4,2.5841 c -2.6e-4,1.42122 -0.15912,2.58406 -0.353,2.58406 -0.19389,0 -0.96987,-0.70783 -1.72423,-1.57292 l -1.37159,-1.57293 h -4.20283 -4.20284 l 0.24492,1.4044 c 0.13455,0.77242 0.24491,2.11291 0.24491,2.97887 v 1.57451 l 3.18456,-0.21127 c 2.78547,-0.18482 3.27322,-0.34621 3.89193,-1.28689 0.38906,-0.59154 0.78591,-0.97739 0.88187,-0.8575 0.3069,0.38358 0.73588,6.28494 0.45672,6.28494 -0.14778,0 -0.79245,-0.50555 -1.43282,-1.12351 -1.03037,-0.99428 -1.52621,-1.1235 -4.31112,-1.1235 -2.70852,0 -3.11372,0.099 -2.90898,0.71086 0.13077,0.39099 0.23773,1.80661 0.23773,3.14585 v 2.43496 h 3.73538 c 4.23126,0 5.98141,-0.61705 6.81347,-2.40223 0.89658,-1.92355 1.60014,-1.50773 1.59326,0.94167 -0.003,1.17407 -0.1561,2.4062 -0.3394,2.73804 -0.26117,0.4727 -2.42397,0.62929 -9.9868,0.72302 -5.30933,0.0658 -9.65333,-0.0386 -9.65333,-0.2313 z m -126.9673,-0.42082 c 0,-0.24718 0.41356,-0.44942 0.91896,-0.44942 1.9028,0 2.21605,-1.10502 2.21605,-7.81716 0,-3.39613 -0.18256,-6.56455 -0.40566,-7.04273 -0.22866,-0.48964 -0.8174,-0.86929 -1.34842,-0.86929 -0.51855,0 -1.04799,-0.19541 -1.17657,-0.43374 -0.14702,-0.27288 3.27436,-0.48125 9.22379,-0.56179 5.20165,-0.0703 9.49511,-0.0265 9.54104,0.0968 0.23962,0.64498 -0.28498,5.39286 -0.59577,5.39286 -0.20032,0 -0.5709,-0.52074 -0.82375,-1.15721 -0.74604,-1.87771 -2.20808,-2.43803 -6.36178,-2.43803 h -3.74226 v 2.92116 2.92112 h 3.11913 c 2.86303,0 3.19745,-0.0968 4.07278,-1.17947 0.93105,-1.15147 0.95978,-1.15729 1.21233,-0.24492 0.27212,0.98321 0.14626,5.46872 -0.15345,5.46887 -0.096,3e-5 -0.62499,-0.48318 -1.17563,-1.07384 -0.80103,-0.85924 -1.60811,-1.13636 -4.03816,-1.38656 l -3.037,-0.31257 v 3.40891 3.40887 h 3.69729 c 4.37284,0 5.15055,-0.28158 7.00558,-2.53648 0.77189,-0.93827 1.47776,-1.61087 1.56862,-1.49469 0.0907,0.11603 -0.0227,1.47519 -0.24983,3.01999 l -0.41484,2.8088 h -9.5263 c -6.08965,0 -9.52634,-0.16214 -9.52634,-0.44939 z m 21.16124,0 c 0,-0.24718 0.45244,-0.44942 1.00543,-0.44942 0.55302,0 1.34615,-0.20901 1.76258,-0.46469 0.70972,-0.43559 0.74698,-0.90312 0.59501,-7.46725 -0.0892,-3.85142 -0.30917,-7.16425 -0.489,-7.36184 -0.1799,-0.19767 -0.76769,-0.42698 -1.30654,-0.50967 -0.53881,-0.0828 -0.97969,-0.31862 -0.97969,-0.524 0,-0.48438 15.03163,-0.38494 16.5346,0.10923 6.08814,2.0024 8.27384,8.20294 4.50372,12.77636 -2.61271,3.1694 -6.72279,4.3217 -15.45411,4.33273 -3.85795,0.004 -6.172,-0.16063 -6.172,-0.4416 z m 15.54338,-2.94062 c 2.03554,-1.36804 2.87471,-3.19022 2.87471,-6.24212 0,-2.74662 -1.64028,-4.92128 -4.4281,-5.8707 -2.46723,-0.84026 -5.72167,-0.49553 -5.83434,0.61803 -0.19918,1.96868 -0.21732,6.05076 -0.0419,9.44096 l 0.19502,3.76898 2.73222,-0.26268 c 1.94774,-0.18708 3.24053,-0.60431 4.50255,-1.45247 z m 19.23545,2.4779 1.66545,-0.84866 v -6.56432 c 0,-3.61039 -0.17499,-6.9391 -0.38861,-7.3971 -0.21392,-0.45801 -0.96317,-1.00086 -1.66545,-1.20631 -1.63192,-0.47747 10.25877,-0.95131 13.49522,-0.53779 5.6956,0.72775 8.97279,5.10807 7.74391,10.35057 -0.65745,2.80487 -2.87217,5.05603 -6.09845,6.19885 -2.21057,0.783 -3.59815,0.91226 -9.50302,0.88512 l -6.9145,-0.0302 z m 13.44696,-2.05648 c 1.83352,-1.22805 3.21981,-4.377 2.99335,-6.79949 -0.36964,-3.9564 -2.81885,-5.93385 -7.37035,-5.95124 l -2.58833,-0.0113 -0.23207,3.17352 c -0.12774,1.74542 -0.12548,4.90458 0.004,7.02036 l 0.2366,3.84684 2.83367,-0.20863 c 1.80604,-0.13304 3.30092,-0.5215 4.12218,-1.07157 z M 436.3869,110.92388 c -2.91421,-0.42274 -5.76907,-0.90406 -6.34417,-1.06957 -1.16439,-0.33524 -1.25454,-0.76316 -1.67977,-7.9745 l -0.22753,-3.857006 1.20476,0.20296 c 0.81657,0.137575 1.38509,0.602721 1.76448,1.44412 0.74698,1.656606 2.58096,3.375156 5.25078,4.920416 6.77038,3.91854 15.37743,4.1613 18.91778,0.53359 1.66606,-1.70713 1.34147,-3.10495 -1.14258,-4.92071 -2.14628,-1.568849 -4.36989,-2.280383 -12.15988,-3.890839 -7.04765,-1.457046 -9.62128,-2.538293 -11.68857,-4.910627 -4.0761,-4.677582 -1.62584,-10.450697 5.85952,-13.805784 4.94729,-2.217411 8.82678,-2.550727 17.51562,-1.504856 l 7.11212,0.856063 -0.26079,2.260989 c -0.56239,4.874381 -1.01888,6.530343 -1.80015,6.530343 -0.40822,0 -1.04258,-0.556119 -1.40965,-1.235868 -1.32707,-2.457297 -3.04335,-4.147918 -4.9471,-4.873096 -2.50276,-0.95331 -9.64819,-1.096138 -11.84194,-0.236598 -1.86705,0.73149 -3.33093,2.155994 -3.33093,3.241436 0,2.802822 1.96524,3.830211 11.95215,6.248353 7.3782,1.78647 9.19226,2.449134 11.39622,4.162923 2.3116,1.797468 3.44969,4.190022 3.47577,7.306961 0.0446,5.35192 -4.59587,9.17877 -13.10854,10.80987 -4.17082,0.79914 -7.76254,0.74014 -14.5076,-0.23812 z m 30.18255,0.49089 c -2.44709,-0.23736 -2.80785,-0.36926 -2.15528,-0.7877 0.43106,-0.27628 1.4891,-0.64527 2.35125,-0.8197 0.86211,-0.17424 1.97748,-0.62011 2.47861,-0.99042 l 0.91113,-0.67333 -0.20182,-9.742108 c -0.11112,-5.358161 -0.21241,-12.012019 -0.22526,-14.786344 -0.0227,-5.038753 -0.0265,-5.044989 -1.10121,-5.676775 -0.5927,-0.347716 -1.82619,-0.775143 -2.74106,-0.949455 -2.95839,-0.563716 -2.23593,-1.134652 1.54231,-1.218897 12.29359,-0.274016 24.00435,-0.107717 26.96451,0.383055 11.31428,1.87593 19.34423,9.672 18.69664,18.152013 -0.57698,7.555091 -6.48986,13.248641 -16.58876,15.973341 -3.97198,1.07165 -5.03954,1.15948 -15.62755,1.2858 -6.2504,0.0744 -12.68693,0.008 -14.30343,-0.14967 z m 26.75811,-4.55566 c 4.87189,-2.09208 7.51952,-5.97664 7.98085,-11.709503 0.32391,-4.023459 -0.53276,-7.278615 -2.63641,-10.019339 -3.20356,-4.173771 -6.59822,-5.595591 -13.64568,-5.715402 l -4.5453,-0.0771 -0.10356,14.181846 -0.10356,14.181808 1.27907,0.21241 c 3.02657,0.50252 9.49814,-0.0771 11.77436,-1.05453 z m -92.0377,-24.155035 c 0.0544,-0.06236 1.6712,-0.430677 3.59267,-0.818872 4.00467,-0.809084 6.70296,-2.049525 11.8077,-5.428082 4.42378,-2.927887 10.28712,-7.796221 9.38963,-7.796221 -0.36132,0 -0.65722,-0.202205 -0.65722,-0.449424 0,-0.247181 -0.79355,-0.449385 -1.76342,-0.449385 -2.41489,0 -2.29867,-1.126526 0.27326,-2.647257 1.51782,-0.897525 1.72249,-1.845128 0.40037,-1.85367 -1.85953,-0.01134 -2.28257,-0.705524 -0.80924,-1.326614 l 1.31139,-0.552793 -1.56752,-0.582652 -1.56749,-0.582652 1.4953,-0.04725 c 3.24688,-0.102425 4.07777,-1.903483 1.17902,-2.555905 -2.11,-0.474898 -2.79496,-1.535887 -0.99152,-1.535887 0.96661,0 2.50772,-1.134992 1.99786,-1.471408 -0.0847,-0.05594 -0.476,-0.303874 -0.86982,-0.550904 -1.10627,-0.694337 -0.86374,-1.311193 0.68024,-1.729927 1.48437,-0.402596 1.92499,-1.191194 0.66553,-1.191194 -0.408,0 -0.84332,-0.303496 -0.9674,-0.674117 -0.32353,-0.966425 0.11489,-2.005908 0.73133,-1.734652 0.58198,0.256252 2.1535,-0.565304 2.1535,-1.125619 0,-0.196157 -0.37893,-0.340913 -0.84204,-0.321259 -1.16466,0.04951 -1.3279,-0.842722 -0.25474,-1.391925 l 0.88471,-0.452712 -0.87367,-0.536239 c -0.94738,-0.581443 -1.22351,-1.653506 -0.32391,-1.257638 0.30237,0.133039 0.87546,-0.0412 1.27359,-0.387024 0.68281,-0.593272 0.6683,-0.630576 -0.25587,-0.657562 -0.88887,-0.02646 -0.91737,-0.08277 -0.30766,-0.614135 0.51164,-0.445758 0.56312,-0.710627 0.21544,-1.109216 -0.34772,-0.398627 -0.28763,-0.523654 0.25133,-0.523654 0.46844,0 0.63179,-0.228283 0.48258,-0.674116 -0.12397,-0.370772 -0.0665,-0.674117 0.12774,-0.674117 0.19427,0 0.46511,0.404485 0.60193,0.89881 0.13682,0.494362 0.54546,0.905234 0.90811,0.913096 0.61009,0.01512 0.61119,0.05632 0.0151,0.576794 -0.5311,0.463445 -0.55801,0.698305 -0.1527,1.333908 0.27062,0.42429 0.69287,0.77144 0.93854,0.77144 0.5862,0 0.56806,0.579779 -0.0401,1.277064 -0.38751,0.444397 -0.37606,0.636397 0.0571,0.943181 0.43272,0.306898 0.39213,0.429619 -0.19918,0.603251 -0.64456,0.189354 -0.65208,0.224882 -0.0571,0.270236 0.95849,0.07294 0.85656,0.828208 -0.16176,1.198866 -0.77473,0.281953 -0.78883,0.346205 -0.16403,0.747251 0.37606,0.241134 1.02187,0.337134 1.43538,0.213165 0.61002,-0.182929 0.75179,0.01512 0.75179,1.043225 0,0.697777 0.22035,1.363125 0.48987,1.478514 0.45403,0.194645 0.0378,0.463521 -1.59236,1.028523 -0.91389,0.316724 -0.0643,1.08359 1.20053,1.08359 1.16334,0 1.18772,0.03402 0.4667,0.659792 -0.74355,0.644977 -0.74136,0.660133 0.0979,0.674117 1.54329,0.02646 1.41543,0.931956 -0.2366,1.676107 -0.88097,0.39685 -1.60176,0.868346 -1.60176,1.047761 0,0.650419 1.01159,1.264819 2.32263,1.410708 1.9604,0.218079 1.86554,0.970356 -0.25777,2.044914 -1.68449,0.852472 -1.7808,0.977348 -0.97613,1.265953 0.66262,0.237732 0.83036,0.545423 0.65079,1.194217 -0.21543,0.778243 -0.0556,0.740221 1.45852,-0.346583 1.96339,-1.409537 11.8684,-9.471609 18.1592,-14.780447 2.37082,-2.000769 4.88969,-4.105134 5.5974,-4.676334 l 1.28682,-1.038577 3.02521,2.651452 3.02517,2.651452 2.39784,-2.048315 c 1.31883,-1.126564 3.3727,-3.01629 4.56416,-4.199357 l 2.16631,-2.151081 4.25163,3.372662 c 9.73924,7.725732 13.59564,10.591673 14.25211,10.591673 0.8677,0 3.03046,-2.771453 3.36866,-4.316712 0.57146,-2.611201 -2.69194,-5.163327 -7.8672,-6.152505 -4.01768,-0.767924 -3.27765,-1.352201 1.70834,-1.3488 8.10218,0.0038 14.74394,3.864341 15.50147,9.006199 0.28422,1.929449 2.38817,4.314973 2.92577,3.317405 0.16932,-0.314079 0.82636,0.156094 1.77339,1.268183 l 1.50459,1.767042 -1.69689,2.386583 c -0.93332,1.31263 -1.83621,2.573934 -2.00648,2.802936 -0.49277,0.662702 -1.79217,-0.991484 -2.0587,-2.620876 -0.35188,-2.151723 -3.24231,-4.761222 -5.27358,-4.761222 -1.11772,0 -3.12986,2.104176 -3.47565,3.634582 -0.16328,0.722193 -0.42116,1.362671 -0.57328,1.423333 -0.15232,0.06047 -2.4446,-1.643452 -5.09439,-3.786822 -2.64975,-2.143371 -7.61333,-6.143056 -11.0301,-8.888202 l -6.21237,-4.991207 -4.27619,3.659792 c -2.35193,2.012864 -4.41427,3.942615 -4.58295,4.28829 -0.23659,0.484952 -1.03676,0.0038 -3.50279,-2.105763 l -3.19608,-2.7343 -5.99422,5.117254 c -3.29684,2.814539 -6.73005,5.710451 -7.62931,6.43544 -0.8993,0.724989 -3.7208,3.060548 -6.27001,5.19016 -10.24581,8.559308 -19.07369,14.905853 -24.63614,17.711359 l -3.11935,1.573341 4.91104,-0.05291 c 2.80369,-0.03024 5.52782,-0.295937 6.34843,-0.619616 1.9451,-0.766866 25.5021,-15.259389 31.84672,-19.592467 2.80188,-1.913537 8.44486,-5.788044 12.53998,-8.609991 l 7.4456,-5.130822 1.95938,1.32034 c 1.07765,0.726161 3.19377,2.281777 4.70249,3.456908 2.52449,1.966299 17.79303,13.196258 25.66775,18.878552 1.83201,1.321927 3.71463,2.794242 4.1836,3.271785 0.69736,0.710136 1.76795,0.936152 5.87811,1.241046 2.76401,0.204851 5.11362,0.411402 5.22142,0.458608 0.66701,0.292158 -3.99092,0.810784 -7.536,0.838866 -4.11784,0.03402 -4.24785,0.0022 -6.26998,-1.469934 -2.04219,-1.486677 -8.76948,-5.932875 -23.22618,-15.350589 -4.09508,-2.667742 -8.15402,-5.404574 -9.01991,-6.081903 l -1.57429,-1.231446 -6.851,4.498734 c -7.88137,5.175308 -24.48881,14.779844 -29.38379,16.9934 -1.83201,0.828472 -6.06425,3.068371 -9.40497,4.977524 l -6.07404,3.471194 -10.64644,0.146646 c -5.85551,0.0805 -10.60184,0.09562 -10.54734,0.03401 z m -0.82136,-2.127874 c 5.81567,-1.897285 12.02059,-4.393965 12.02158,-4.83719 3.8e-4,-0.185197 -0.30803,-0.350741 -0.68504,-0.36737 -0.54603,-0.02268 -0.50608,-0.129638 0.19578,-0.51806 1.26803,-0.701367 1.08608,-1.372044 -0.27893,-1.028183 -0.63836,0.16063 -1.47602,0.08202 -1.86142,-0.17537 -0.60865,-0.406224 -0.55914,-0.469493 0.37682,-0.481361 0.59271,-0.0076 1.07766,-0.215811 1.07766,-0.463068 0,-0.247181 -0.17651,-0.449423 -0.3919,-0.449423 -0.21544,0 -0.39186,-0.176504 -0.39186,-0.391937 0,-0.215433 0.71368,-0.52286 1.58592,-0.68281 1.91864,-0.351874 1.6893,-1.165228 -0.33562,-1.189871 l -1.44639,-0.0189 1.27359,-0.63481 c 1.51091,-0.753108 1.54931,-0.951912 0.3919,-2.028056 -1.08049,-1.004599 -0.78399,-1.419629 1.05706,-1.479459 1.69066,-0.0548 1.63498,-0.821707 -0.10318,-1.420611 -1.55724,-0.536617 -1.57561,-0.923981 -0.0722,-1.525001 1.1963,-0.478262 1.6173,-1.415547 0.63579,-1.415547 -0.29707,0 -0.74252,-0.280063 -0.99024,-0.622375 -0.36094,-0.498557 -0.23433,-0.684548 0.63561,-0.934942 1.20536,-0.34696 2.07008,-1.037064 2.07008,-1.652145 0,-0.22148 -0.42164,-0.281574 -0.93694,-0.133417 -0.5153,0.148158 -1.04236,0.07408 -1.17124,-0.165165 -0.12888,-0.239244 0.14551,-0.548599 0.60952,-0.687761 0.71252,-0.213543 0.76532,-0.361323 0.33941,-0.949909 -0.41662,-0.575697 -0.40434,-0.696831 0.0707,-0.696831 0.574,0 1.87215,-1.359874 1.87215,-1.961197 0,-0.174614 -0.35263,-0.100913 -0.78376,0.163654 -0.53136,0.326173 -0.78372,0.331086 -0.78372,0.01512 0,-0.255874 0.19805,-0.465222 0.43986,-0.465222 0.30388,0 0.28914,-0.208252 -0.048,-0.674079 -0.3832,-0.529512 -0.38449,-0.674117 -0.008,-0.674117 0.26495,0 0.3885,-0.278551 0.2744,-0.619351 -0.11414,-0.340535 -0.002,-0.854627 0.24869,-1.142211 0.34658,-0.397569 0.31597,-0.624454 -0.1285,-0.946696 -0.39024,-0.283087 -0.42172,-0.426104 -0.0945,-0.430715 0.26948,-0.0038 0.48982,-0.311811 0.48982,-0.684775 0,-0.562583 0.13191,-0.583597 0.77398,-0.12359 0.49527,0.354897 0.63828,0.709908 0.39722,0.986343 -0.24113,0.276283 -0.13719,0.735458 0.28801,1.27457 0.56628,0.717619 0.58163,0.901455 0.10355,1.24029 -0.46408,0.328819 -0.43491,0.453392 0.16857,0.718942 0.69339,0.305007 0.69536,0.349984 0.0393,0.900283 -0.63058,0.528756 -0.63655,0.641084 -0.0688,1.291994 0.34205,0.392088 0.71607,0.705638 0.83153,0.696831 0.62839,-0.048 0.65451,0.04384 0.19352,0.680807 -0.42717,0.590249 -0.367,0.738028 0.39367,0.966123 l 0.89802,0.269102 -0.88993,0.769814 c -1.04689,0.905613 -0.74147,1.79195 0.61754,1.79195 1.37869,0 1.20038,1.177852 -0.31711,2.094387 l -1.27358,0.769248 1.27358,0.43079 c 1.55694,0.526677 1.63994,1.08189 0.19578,1.310589 -1.0741,0.170079 -1.07281,0.173102 0.39187,0.934715 1.56759,0.81498 1.98727,2.100132 0.68579,2.100132 -0.43544,0 -0.78376,0.299717 -0.78376,0.674117 0,0.425235 0.3738,0.674117 1.01235,0.674117 1.25839,0 1.0772,0.979729 -0.25777,1.393096 -0.92825,0.287622 -0.92024,0.307275 0.34092,0.849902 0.71025,0.305386 1.2311,0.763011 1.1574,1.016542 -0.54024,1.858658 -13.61382,7.691868 -21.38237,9.540473 -4.84698,1.15336 -4.81992,0.705146 0.0533,-0.884712 z M 513.17261,73.186696 C 511.6478,72.844648 496.72589,61.402355 497.44585,61.12713 c 0.64426,-0.246425 2.48417,0.96703 9.09479,5.997505 3.34072,2.542186 6.95577,5.029078 8.03342,5.526426 2.04567,0.944088 1.4445,1.173883 -1.40145,0.535635 z m -64.65566,-0.978785 c 2.1747,-1.106116 13.95458,-6.007597 15.40736,-6.410835 1.18156,-0.328063 1.49144,0.331465 0.39186,0.833991 -2.10051,0.959773 -16.75158,6.518854 -17.11019,6.492132 -0.23433,-0.0189 0.35566,-0.429354 1.31097,-0.915288 z m -14.86492,-1.007849 c 0,-0.143244 2.41334,-2.105234 5.36296,-4.359798 6.10288,-4.664655 13.65982,-11.093405 17.27059,-14.692158 l 2.45201,-2.443881 1.78696,1.200983 1.78696,1.200983 -1.84808,1.344075 c -4.57629,3.328253 -9.56175,6.702313 -17.0118,11.513122 -4.41989,2.854148 -8.43296,5.483641 -8.91791,5.843339 -0.48491,0.359811 -0.88169,0.536693 -0.88169,0.393335 z m 56.62583,-2.051565 c -6.91529,-2.499515 -7.60063,-2.817222 -5.42404,-2.514444 2.53595,0.35263 13.64633,4.783219 11.69405,4.663181 -0.21543,-0.01512 -3.03704,-0.980183 -6.27001,-2.148737 z m -21.74903,-0.937021 v -2.247004 h 2.35125 2.35124 v 2.247004 2.247043 h -2.35124 -2.35125 z m 5.48625,0.02268 V 65.9647 h 1.95938 c 1.07766,0 2.07799,-0.05065 2.22301,-0.112252 0.14513,-0.06161 0.27742,0.89881 0.29405,2.134678 l 0.0302,2.247042 -2.25328,0.134929 -2.25328,0.13493 z m -5.48625,-5.379251 v -2.283061 h 1.95938 2.25328 c 0.16177,0 0.29405,0.960604 0.29405,2.134677 v 2.134677 l -2.25328,0.148535 -2.25328,0.148536 z m 6.75984,1.895055 c -1.24245,-0.185575 -1.27359,-0.244535 -1.27359,-2.408957 v -2.218545 h 2.15531 2.15532 v 2.022312 c 0,1.112277 0.0442,2.173984 0.0979,2.35937 0.11565,0.398286 -1.34759,0.513033 -3.13501,0.245669 z"
       style="fill:#e0c038;stroke-width:3.77953"
       id="path1-3" />
  </g>
</svg>
